<svg width="799" height="477" viewBox="0 0 799 477" fill="none" xmlns="http://www.w3.org/2000/svg">
<g clip-path="url(#clip0_10_7)">
<path d="M25.3816 0C23.8102 1.0494 22.1589 1.9716 20.4544 2.7666C13.8493 5.883 6.9513 7.0596 0 7.4412V8.268C7.0312 7.9182 13.9825 6.678 20.6941 3.5616C22.7981 2.544 24.8223 1.3356 26.7399 0H25.3816Z" fill="#181818"/>
<path d="M49.0586 0C42.0807 9.4764 32.7324 16.7904 22.0524 20.7972C14.888 23.5002 7.45733 24.804 0 25.44V26.235C7.53723 25.599 14.9946 24.2634 22.2655 21.5604C33.265 17.4264 42.8797 9.8262 49.9641 0H49.0586Z" fill="#181818"/>
<path d="M64.6657 0C64.4793 0.318 64.2929 0.6678 64.0798 0.9858C53.4265 18.6666 37.7661 30.9732 18.7499 36.57C12.5443 38.4144 6.17893 39.6864 0 40.704V41.499C6.2322 40.5132 12.6508 39.2094 18.9097 37.365C38.0857 31.7046 53.8792 19.3026 64.6125 1.4628C64.9054 0.9858 65.1718 0.477 65.4647 0H64.6657Z" fill="#181818"/>
<path d="M87.5971 283.879C94.0157 290.779 105.148 289.444 114.976 288.267C134.472 285.946 154.447 281.875 176.02 275.865C182.412 274.084 188.884 272.017 195.142 270.014C208.646 265.721 222.601 261.237 236.584 259.361C257.278 256.594 278.318 258.311 298.107 260.283C316.244 262.127 337.098 263.24 355.235 253.478C368.978 246.068 380.324 232.967 388.074 215.604C395.399 199.1 398.754 180.02 397.449 161.894C395.825 138.743 388.474 118.391 376.782 104.59C372.014 98.9616 366.395 94.2234 360.935 89.6442C352.492 82.5528 343.756 75.207 338.35 64.4904C330.094 48.0816 333.29 26.235 345.621 14.7552C361.095 0.349801 381.869 9.7944 390.098 14.5644C395.798 17.8398 401.284 21.7194 406.585 25.4718C417.131 32.913 428.024 40.5768 440.808 43.8204C457.747 48.0816 475.165 46.3962 491.998 44.7744L493.649 44.6154C527.02 41.3718 561.351 41.0856 582.338 75.1434C590.408 88.245 595.175 103.891 599.783 119.027C601.567 124.91 603.432 130.984 605.456 136.835C606.574 140.079 607.773 143.386 608.918 146.566C614.697 162.593 620.663 179.193 620.823 197.065C621.009 219.961 609.797 238.436 598.318 255.386L595.814 259.075C584.016 276.469 572.856 292.91 563.668 312.467C562.283 315.424 560.951 318.413 559.54 321.593C552.588 337.144 545.424 353.234 533.306 362.234C518.977 372.887 501.026 369.643 485.153 366.749L484.194 366.59C464.432 362.997 445.043 360.389 425.254 367.608C414.788 371.424 404.907 377.307 395.372 382.999C387.595 387.642 379.578 392.412 371.295 396.037C368.952 397.055 366.581 398.072 364.238 399.09C347.831 406.15 332.331 412.828 317.23 423.226C303.46 432.703 291.768 444.055 279.384 456.107C276.88 458.556 274.377 460.973 271.82 463.421C265.987 469.018 260.368 473.534 254.854 477.064H260.234C264.602 473.947 269.023 470.227 273.498 465.934C276.055 463.485 278.558 461.036 281.062 458.62C293.34 446.663 304.952 435.406 318.535 426.025C333.423 415.785 348.817 409.139 365.116 402.111C367.46 401.093 369.831 400.108 372.174 399.058C380.59 395.401 388.687 390.568 396.517 385.893C405.945 380.264 415.72 374.445 425.974 370.693C445.229 363.697 464.299 366.272 483.741 369.77L484.7 369.961C501 372.919 519.51 376.258 534.664 364.969C547.368 355.492 554.719 339.052 561.83 323.12C563.242 319.972 564.573 316.982 565.932 314.057C574.987 294.722 586.067 278.409 597.812 261.11L600.315 257.421C611.581 240.79 623.593 221.01 623.406 197.033C623.273 178.493 617.174 161.608 611.288 145.294C610.143 142.114 608.971 138.839 607.853 135.595C605.855 129.808 604.017 123.766 602.233 117.914C597.572 102.555 592.725 86.6868 584.415 73.2036C562.603 37.8102 527.473 38.0964 493.383 41.3718L491.731 41.5308C475.085 43.1526 457.88 44.8062 441.314 40.6404C428.93 37.524 418.729 30.3054 407.89 22.6734C402.536 18.8892 396.997 14.9778 391.19 11.6388C382.535 6.6462 360.562 -3.3072 343.916 12.2112C330.52 24.6768 327.057 48.3678 336.006 66.144C341.679 77.433 350.655 84.9696 359.337 92.2836C364.69 96.7992 370.23 101.442 374.838 106.88C386.077 120.172 393.135 139.793 394.706 162.18C397.343 199.291 380.244 236.465 354.064 250.584C336.512 260.06 316.031 258.916 298.24 257.135C278.318 255.131 257.118 253.414 236.184 256.213C222.016 258.121 207.953 262.604 194.343 266.929C188.111 268.933 181.639 270.968 175.301 272.749C153.808 278.727 133.966 282.766 114.577 285.087C105.308 286.2 94.8147 287.44 89.2484 281.494C86.3986 278.441 84.9604 273.703 84.8539 266.993C84.6142 249.98 90.3403 232.108 101.819 213.95C104.11 210.325 106.453 206.668 108.744 203.17C117.853 189.051 127.254 174.455 134.578 158.269C142.701 140.27 150.612 118.9 158.788 92.8878C167.044 66.5892 170.107 43.0254 168.136 20.829C167.577 13.356 166.245 6.519 164.408 0H161.584C163.502 6.5826 164.887 13.515 165.579 21.1152C167.497 42.8028 164.488 65.8578 156.391 91.6794C148.268 117.533 140.411 138.807 132.341 156.647C125.123 172.61 115.775 187.111 106.746 201.103C104.456 204.633 102.112 208.29 99.8218 211.915C87.9699 230.677 82.084 249.217 82.3237 266.961C82.4036 274.657 84.1347 280.158 87.5971 283.879Z" fill="#181818"/>
<path d="M178.923 473.693C175.434 472.294 171.812 470.831 168.296 469.495C151.384 463.072 132.261 454.804 119.158 437.854C109.277 425.071 106.64 407.93 104.11 391.363C103.417 386.815 102.698 382.141 101.846 377.625C99.7684 366.559 97.185 355.492 93.9624 343.726C92.9769 340.101 92.0448 336.317 91.1392 332.66C89.195 324.773 87.1975 316.664 84.4276 309.16C80.2462 297.902 72.0964 294.786 65.4381 293.291C57.0752 291.447 48.2063 289.221 39.8701 284.069C26.8464 276.056 17.4182 262.191 10.1739 240.44C6.47186 229.31 3.14269 217.798 -0.0266724 206.509V216.463C2.39696 224.89 4.92713 233.38 7.69699 241.648C15.1011 263.845 25.2217 278.663 38.6716 286.963C47.3274 292.306 56.4094 294.595 64.9853 296.503C74.014 298.507 79.101 302.672 82.004 310.495C84.7206 317.809 86.6915 325.823 88.6091 333.614C89.5146 337.303 90.4468 341.119 91.4588 344.776C94.6282 356.414 97.185 367.417 99.2624 378.388C100.115 382.84 100.807 387.483 101.5 391.999C104.11 409.012 106.8 426.629 117.213 440.112C130.77 457.634 150.265 466.093 167.497 472.643C170.986 473.979 174.581 475.41 178.07 476.809C178.283 476.905 178.497 476.968 178.71 477.064H187.259C184.462 475.919 181.693 474.806 178.923 473.693Z" fill="#181818"/>
<path d="M413.589 9.82617C427.172 18.1896 439.983 26.076 455.004 29.1924C470.824 32.4678 486.698 29.6376 502.065 26.871C506.14 26.1396 510.375 25.3764 514.529 24.7404C535.09 21.624 550.431 23.5956 564.227 31.1322C577.757 38.5416 589.635 51.1026 597.679 66.4938C604.177 78.8958 607.586 93.2376 610.889 107.134C612.593 114.289 614.351 121.667 616.508 128.695C618.053 133.719 619.838 138.871 621.569 143.863C627.348 160.558 633.341 177.794 632.542 195.793C631.317 223.618 616.935 244.574 603.005 264.862C594.776 276.851 586.253 289.285 580.394 303.086C569.447 328.971 565.932 351.772 569.873 370.82C570.806 375.304 571.924 379.66 572.99 383.89C577.304 400.839 581.352 416.866 572.137 434.42C568.542 441.257 564.494 447.712 560.605 453.945C556.024 461.259 551.363 468.764 547.342 476.968H548.114C552.056 468.986 556.663 461.641 561.138 454.454C565.053 448.189 569.074 441.734 572.697 434.865C582.098 417.025 577.997 400.807 573.629 383.667C572.563 379.438 571.445 375.081 570.539 370.629C566.624 351.772 570.14 329.162 581.006 303.467C586.812 289.73 595.308 277.36 603.538 265.371C617.521 245.019 631.982 223.936 633.208 195.856C634.007 177.667 628.014 160.336 622.181 143.577C620.45 138.584 618.666 133.433 617.121 128.44C614.964 121.444 613.206 114.067 611.501 106.943C608.172 93.015 604.737 78.6096 598.211 66.1122C590.088 50.5938 578.103 37.9056 564.467 30.4326C550.564 22.8006 535.117 20.7972 514.396 23.9454C510.241 24.5814 506.007 25.3446 501.932 26.076C486.618 28.8108 470.797 31.6728 455.084 28.3974C440.169 25.281 427.385 17.4264 413.855 9.09477C411.885 7.88637 409.914 6.67797 407.943 5.46957C404.853 3.59337 401.711 1.74897 398.515 -0.0318336H396.917C400.565 1.93977 404.134 4.07037 407.65 6.16917C409.674 7.40937 411.645 8.61777 413.589 9.82617Z" fill="#181818"/>
<path d="M350.655 101.124C342.398 93.1422 333.876 84.8742 327.67 74.253C318.109 57.876 317.656 35.1708 326.498 16.4088C329.588 9.8262 333.556 4.293 338.11 0H337.045C332.704 4.2612 328.922 9.6672 325.912 16.0272C316.937 35.0754 317.416 58.0986 327.111 74.73C333.369 85.4466 341.945 93.7464 350.228 101.76C355.342 106.721 360.642 111.872 365.329 117.501C377.341 132.002 383.653 152.163 382.615 172.833C381.549 194.044 373 213.728 359.124 226.829C338.243 246.577 312.569 245.019 287.773 243.524C274.403 242.729 260.607 241.871 247.663 244.383C243.802 245.114 239.886 245.719 236.105 246.291C231.817 246.959 227.369 247.627 223.001 248.517C215.277 250.107 207.5 252.079 199.963 254.018C197.3 254.686 194.663 255.386 192 256.022L190.482 256.403C173.676 260.601 154.66 265.339 137.188 263.304C126.828 262.064 118.838 257.644 114.71 250.87C111.567 245.687 110.635 239.2 111.967 231.631C114.337 218.275 120.889 206.573 127.227 195.22C130.69 189.051 134.259 182.659 137.055 176.14C142.275 164.024 146.324 150.986 150.239 138.394C151.224 135.245 152.183 132.097 153.195 128.981C154.793 123.956 156.498 118.837 158.122 113.908C161.451 103.859 164.887 93.4602 167.763 83.0298C175.833 53.7102 177.698 26.9982 173.49 0.0318H172.797C177.032 26.9028 175.167 53.5512 167.124 82.7754C164.248 93.2058 160.812 103.573 157.483 113.621C155.858 118.55 154.154 123.638 152.556 128.695C151.57 131.811 150.585 134.959 149.599 138.107C145.684 150.7 141.636 163.706 136.443 175.759C133.646 182.246 130.077 188.606 126.642 194.743C120.276 206.159 113.671 217.925 111.301 231.44C109.916 239.263 110.875 245.941 114.151 251.315C118.412 258.311 126.562 262.827 137.108 264.067C154.66 266.134 173.756 261.364 190.615 257.167L192.133 256.785C194.796 256.117 197.46 255.449 200.096 254.75C207.607 252.842 215.384 250.838 223.081 249.28C227.449 248.39 231.896 247.69 236.158 247.054C239.94 246.482 243.855 245.878 247.743 245.146C260.607 242.666 274.377 243.493 287.693 244.319C312.622 245.814 338.403 247.372 359.497 227.465C373.506 214.237 382.162 194.33 383.227 172.865C384.266 151.972 377.9 131.557 365.756 116.897C361.095 111.236 355.795 106.117 350.655 101.124Z" fill="#181818"/>
<path d="M337.791 107.897C333.05 102.555 328.123 97.0218 323.755 91.107C310.305 72.9492 305.538 52.6926 309.586 30.9096C311.717 19.4298 315.392 8.8404 320.159 0H319.36C314.673 8.8404 311.051 19.3662 308.92 30.7506C304.819 52.788 309.639 73.2672 323.249 91.6476C327.643 97.5942 332.57 103.127 337.338 108.47C345.141 117.247 353.211 126.341 359.124 137.344C368.845 155.502 369.351 176.713 360.456 194.107C349.749 215.063 331.692 222.6 318.428 225.208C305.458 227.783 291.955 228.356 278.904 228.928C271.793 229.246 264.442 229.564 257.278 230.2C243.935 231.377 230.565 233.825 217.594 236.179C210.217 237.546 202.573 238.913 195.009 240.058H194.929C182.039 242.03 168.722 244.033 156.231 240.535C149.999 238.786 145.498 235.67 142.835 231.313C137.907 223.268 140.304 212.456 143.207 202.057C146.031 191.913 148.747 181.546 151.357 171.497C154.953 157.792 158.655 143.641 162.65 129.871C164.621 123.098 166.805 116.229 168.909 109.583C173.996 93.5238 179.269 76.9242 182.225 59.8794C185.581 40.6722 186.087 20.511 183.77 0H183.104C185.448 20.4792 184.942 40.545 181.639 59.7522C178.71 76.7334 173.436 93.3012 168.349 109.328C166.245 115.975 164.061 122.843 162.09 129.649C158.069 143.45 154.367 157.601 150.771 171.307C148.135 181.324 145.445 191.69 142.621 201.835C140.464 209.657 136.815 222.759 142.355 231.822C145.125 236.338 149.759 239.549 156.125 241.33C161.132 242.761 166.299 243.27 171.465 243.27C179.296 243.27 187.259 242.062 195.036 240.885H195.116C202.68 239.74 210.323 238.341 217.701 237.005C230.645 234.652 244.015 232.204 257.331 231.027C264.496 230.391 271.846 230.073 278.931 229.755C292.008 229.183 305.511 228.61 318.535 226.034C331.931 223.395 350.175 215.763 361.015 194.552C370.044 176.872 369.538 155.343 359.683 136.931C353.744 125.833 345.621 116.706 337.791 107.897Z" fill="#181818"/>
<path d="M488.669 0C475.911 11.3844 457.348 6.3918 444.457 1.6218C443.072 1.113 441.687 0.5724 440.329 0H438.225C440.222 0.8268 442.247 1.6218 444.244 2.385C457.374 7.2504 476.311 12.3384 489.308 0.4134C489.467 0.2862 489.601 0.1272 489.76 0H488.669Z" fill="#181818"/>
<path d="M310.252 89.676C299.465 73.0128 295.683 52.947 299.359 31.641C300.69 23.9454 303.221 12.243 307.722 0H307.002C302.555 12.1794 300.025 23.8182 298.72 31.4502C295.017 53.0106 298.826 73.299 309.719 90.153C313.634 96.195 318.322 102.046 323.275 108.279C338.43 127.295 354.117 146.98 349.696 173.723C345.275 200.435 319.786 208.417 298.08 212.392C290.623 213.76 283.006 214.714 275.628 215.668C271.5 216.208 267.239 216.749 263.031 217.353C258.423 218.021 253.816 218.72 249.208 219.42C233.681 221.773 217.594 224.222 201.774 225.208C179.615 226.607 166.592 219.961 163.049 205.523C160.706 195.952 161.638 185.267 162.81 175.154C162.969 173.851 162.996 172.006 163.023 169.844C163.103 164.692 163.209 157.601 165.42 155.502L165.5 155.375C166.671 152.735 166.964 149.651 167.231 146.693C167.337 145.549 167.444 144.436 167.604 143.386C168.269 138.743 169.521 134.132 170.746 129.649L171.172 128.122C173.543 119.409 176.366 110.728 179.083 102.332C180.281 98.6436 181.506 94.8594 182.678 91.107C189.869 68.2428 193.598 45.156 193.811 22.4508C193.891 15.0096 193.518 7.4412 193.118 0.0318H192.453C192.852 7.4412 193.225 15.0096 193.145 22.4508C192.932 45.0606 189.203 68.052 182.066 90.8526C180.894 94.605 179.642 98.421 178.47 102.078C175.753 110.473 172.93 119.186 170.56 127.9L170.134 129.426C168.909 133.942 167.63 138.584 166.964 143.291C166.805 144.372 166.698 145.549 166.592 146.662C166.325 149.524 166.032 152.481 164.967 154.993C162.57 157.378 162.463 164.311 162.383 169.907C162.357 172.006 162.33 173.851 162.17 175.123C160.999 185.33 160.04 196.111 162.437 205.81C165.766 219.388 177.112 226.225 196.234 226.225C198.019 226.225 199.883 226.162 201.801 226.034C217.674 225.049 233.734 222.6 249.288 220.215C253.896 219.515 258.503 218.816 263.084 218.148C267.266 217.544 271.554 217.003 275.682 216.463C283.059 215.509 290.703 214.555 298.16 213.187C318.375 209.498 345.781 201.389 350.335 173.882C354.836 146.725 339.016 126.914 323.755 107.738C318.828 101.537 314.14 95.6862 310.252 89.676Z" fill="#181818"/>
<path d="M576.745 464.248C573.735 468.414 570.699 472.643 567.77 477H568.622C571.418 472.802 574.348 468.764 577.224 464.757C582.711 457.157 588.384 449.27 593.098 440.716C603.218 422.304 604.204 403.955 596.241 381.187C589.795 362.711 583.11 343.599 587.665 321.562C592.485 298.157 605.216 279.745 617.547 261.937C627.748 247.181 638.268 231.949 644.367 213.887C651.265 193.503 650.493 170.162 642.103 144.499C641.544 142.814 640.985 141.16 640.452 139.475C637.655 131.016 634.752 122.271 632.755 113.335C631.077 105.83 630.278 98.0076 629.506 90.4392C629.239 87.7998 628.946 85.0332 628.653 82.3302C627.322 70.914 624.499 60.6744 619.545 49.0992C615.923 40.704 610.676 33.549 605.615 26.6166C603.485 23.7228 601.301 20.7336 599.277 17.7126C595.921 12.72 592.512 6.70977 591.287 -0.0318336H590.594C591.819 6.90057 595.335 13.0698 598.771 18.2214C600.821 21.2742 603.005 24.2634 605.136 27.1572C610.196 34.0578 615.417 41.181 618.985 49.4808C623.913 60.9606 626.709 71.1366 628.014 82.4574C628.334 85.1604 628.6 87.8952 628.866 90.5346C629.639 98.1348 630.438 105.989 632.142 113.558C634.14 122.525 637.069 131.302 639.866 139.793C640.425 141.478 640.985 143.132 641.517 144.817C649.853 170.289 650.599 193.408 643.781 213.601C637.709 231.536 627.215 246.736 617.068 261.428C604.71 279.331 591.926 297.807 587.052 321.371C582.444 343.663 589.183 362.902 595.681 381.505C603.538 403.987 602.579 422.113 592.592 440.271C587.878 448.793 582.231 456.648 576.745 464.248Z" fill="#181818"/>
<path d="M799 12.4338C788.001 11.607 777.933 12.4656 767.839 14.946C759.343 17.0448 750.847 19.7478 742.591 22.3554C731.591 25.8534 720.219 29.4786 708.74 31.6728C693.559 34.5666 673.903 36.4428 656.725 25.2174C646.444 18.5076 638.481 9.6672 633.634 0H632.861C637.762 9.9534 645.912 19.0482 656.432 25.9488C666.632 32.6268 677.685 34.7256 688.152 34.7256C695.476 34.7256 702.561 33.708 708.846 32.4996C720.352 30.3054 731.751 26.6802 742.777 23.1822C751.007 20.5746 759.503 17.8716 767.972 15.7728C778.013 13.2924 788.027 12.4656 799 13.2924V12.4338Z" fill="#181818"/>
<path d="M704.212 0C706.289 0.1908 708.393 0.318 710.551 0.318C712.735 0.318 714.972 0.2226 717.209 0H704.212Z" fill="#181818"/>
<path d="M310.811 107.77C303.3 96.8946 295.497 85.6374 291.289 72.345C285.083 52.8516 289.238 31.4184 294.618 11.1618C295.577 7.53657 296.589 3.81597 297.601 -3.36795e-05H294.778C293.846 3.46617 292.94 6.83697 292.061 10.176C286.521 31.005 282.287 53.0742 288.785 73.4898C293.18 87.291 301.09 98.739 308.76 109.837C310.358 112.127 311.983 114.512 313.581 116.865C325.992 135.373 331.558 151.082 330.12 163.516C329.215 171.338 325.486 178.112 319.041 183.581C302.768 197.414 280.609 200.881 261.06 203.933L259.355 204.188C256.452 204.633 253.523 205.142 250.646 205.619C240.153 207.4 229.313 209.244 218.686 209.244C213.892 209.244 209.498 208.894 205.263 208.131C194.796 206.287 187.312 201.898 183.024 195.093C178.656 188.161 177.538 179.066 176.739 169.558C177.351 148.665 180.734 128.758 187.099 108.692C187.738 106.721 188.351 104.749 188.99 102.778C194.397 85.8918 199.99 68.4018 202.014 49.7034C203.505 35.8386 203.638 21.7194 203.798 8.04537C203.825 5.37417 203.852 2.70297 203.905 -0.0318336H201.215C201.188 2.67117 201.135 5.34237 201.108 7.98177C200.975 21.5604 200.842 35.5842 199.35 49.2582C197.38 67.575 192.08 84.111 186.487 101.601C185.847 103.573 185.208 105.544 184.596 107.516C178.124 127.963 174.661 148.22 174.075 169.526V169.621V169.717C174.928 179.734 176.1 189.369 180.92 196.969C185.634 204.474 193.704 209.276 204.89 211.247C209.258 212.011 213.759 212.392 218.713 212.392C229.526 212.392 240.472 210.548 251.046 208.735C253.896 208.258 256.852 207.749 259.728 207.304L261.406 207.05C281.275 203.933 303.78 200.404 320.585 186.125C327.67 180.115 331.771 172.61 332.783 163.865C334.355 150.319 328.762 134.26 315.685 114.734C314.06 112.445 312.409 110.06 310.811 107.77Z" fill="#181818"/>
<path d="M295.763 108.025C287.107 94.923 278.159 81.3444 275.442 64.7766C272.672 48.018 277.013 31.3866 281.195 15.2958C282.5 10.2714 283.831 5.088 284.923 0H284.231C283.139 4.9926 281.834 10.1124 280.556 15.0414C276.348 31.2276 272.006 47.9862 274.803 64.9356C277.573 81.6942 286.575 95.3364 295.257 108.533C297.361 111.713 299.518 114.989 301.516 118.232C314.54 139.157 316.804 156.17 308.254 168.763C299.865 181.133 284.79 185.521 273.791 188.733C261.433 192.358 246.811 196.047 232.216 196.047C226.863 196.047 221.696 195.538 216.902 194.552C199.351 190.895 189.603 176.903 187.898 152.958C187.872 133.465 194.184 115.211 200.309 97.5624C200.975 95.6544 201.614 93.7782 202.28 91.902C209.391 71.1048 212.854 52.1202 213.093 32.2134L213.12 28.938C213.227 19.6524 213.36 9.7308 214.105 0.0318H213.44C212.694 9.7626 212.587 19.6524 212.481 28.938L212.454 32.2134C212.214 52.0566 208.779 70.914 201.694 91.6158C201.055 93.492 200.389 95.4 199.723 97.2762C193.571 114.989 187.232 133.306 187.259 153.022C188.964 177.38 198.924 191.627 216.822 195.379C221.669 196.397 226.863 196.906 232.269 196.906C246.944 196.906 261.593 193.185 274.004 189.56C285.11 186.316 300.317 181.864 308.84 169.303C317.603 156.392 315.339 139.03 302.129 117.787C300.025 114.512 297.867 111.205 295.763 108.025Z" fill="#181818"/>
<path d="M0 59.1798C1.4382 58.7028 2.8764 58.2258 4.28797 57.7488C19.4157 52.7244 35.0228 47.541 48.6325 37.4922C61.4964 27.984 71.2974 14.9778 80.7256 0H79.9C70.5783 14.6916 60.9104 27.4752 48.2862 36.7926C34.7565 46.7778 19.176 51.9612 4.12817 56.9856C2.76987 57.4308 1.38493 57.9078 0 58.353V59.1798Z" fill="#181818"/>
<path d="M157.669 19.2708C156.364 12.6564 154.26 6.1692 151.57 0H150.825C153.568 6.2328 155.698 12.7836 157.03 19.4616C161.025 39.4002 159.028 60.6744 150.585 88.4358C143.101 113.049 134.578 134.896 125.257 153.403C117.586 168.604 108.131 180.91 98.0906 193.948C95.5071 197.319 92.8172 200.817 90.1805 204.315C87.4639 207.972 84.7473 211.724 82.1106 215.35C78.4352 220.438 74.6532 225.716 70.7648 230.709C70.019 231.663 69.2467 232.681 68.4743 233.73C63.5205 240.313 57.9009 247.754 51.2692 250.552C49.4581 251.315 47.5938 251.729 45.7294 251.729C32.4927 251.729 21.6795 231.917 17.6579 223.427C10.3604 208.099 5.00707 191.404 0 174.964V177.317C4.82063 193.121 10.0674 209.085 17.072 223.84C22.1589 234.557 32.6525 252.556 45.7294 252.556C47.647 252.556 49.5913 252.142 51.4822 251.347C58.3004 248.453 63.9733 240.949 68.9803 234.302C69.7527 233.253 70.5251 232.267 71.2708 231.281C75.1593 226.257 78.9412 220.978 82.6432 215.89C85.2533 212.265 87.9699 208.481 90.6865 204.856C93.2966 201.358 95.9865 197.86 98.57 194.489C108.611 181.419 118.119 169.081 125.789 153.817C135.138 135.277 143.687 113.367 151.197 88.6902C159.693 60.8016 161.691 39.4002 157.669 19.2708Z" fill="#181818"/>
<path d="M272.672 100.933C269.13 96.2904 265.481 91.4886 262.365 86.5596C256.399 77.115 253.416 68.9424 252.937 60.8334C252.431 51.9294 255.414 43.566 258.343 35.457C259.062 33.4854 259.782 31.4502 260.447 29.4468C262.711 22.6416 266.493 11.13 267.612 0H266.946C265.827 11.0028 262.072 22.419 259.835 29.1606C259.169 31.164 258.45 33.1992 257.731 35.1708C254.801 43.3434 251.738 51.8022 252.271 60.9288C252.75 69.1968 255.787 77.4966 261.832 87.0684C264.948 92.0292 268.624 96.831 272.193 101.506C279.464 111.046 287.001 120.904 290.676 132.988C296.189 151.05 285.563 164.056 273.791 170.257C263.803 175.472 251.925 178.493 241.165 178.493C229.766 178.493 209.871 174.868 204.358 150.7C203.053 137.153 205.716 122.589 212.294 107.452C214.318 102.778 216.742 98.1348 219.059 93.651C223.374 85.383 227.822 76.797 230.219 67.5114C233.175 56.0634 231.976 43.9158 230.804 32.1498C229.926 23.1822 228.993 13.8966 229.926 4.9926C230.085 3.4026 230.352 1.749 230.698 0.0636H230.005C229.659 1.7172 229.42 3.339 229.26 4.8972C228.301 13.8966 229.233 23.214 230.139 32.2452C231.284 43.9158 232.482 55.9998 229.579 67.2888C227.209 76.479 222.761 85.0014 218.5 93.2694C216.156 97.785 213.733 102.46 211.708 107.134C205.077 122.43 202.387 137.122 203.718 150.891C209.338 175.631 229.606 179.352 241.165 179.352C252.005 179.352 263.99 176.331 274.057 171.052C286.122 164.724 296.988 151.368 291.315 132.797C287.56 120.458 279.97 110.537 272.672 100.933Z" fill="#181818"/>
<path d="M-0.000405148 85.4145C0.452361 84.7467 0.931761 84.0789 1.46443 83.4429C7.82979 75.8745 16.1128 71.2953 24.1294 66.8433C25.248 66.2391 26.34 65.6031 27.4586 64.9989C41.3346 57.2079 59.2854 46.0461 75.3453 28.8741C78.1152 25.9167 80.8052 22.6095 83.6816 19.1115C89.4876 12.0201 95.4535 4.80145 102.192 -0.0321503H100.913C94.4681 4.80145 88.7952 11.7339 83.2022 18.5391C80.3524 22.0371 77.6358 25.3125 74.8926 28.2381C58.9126 45.3147 40.9883 56.4447 27.1656 64.2357C26.0736 64.8717 24.955 65.4759 23.8364 66.0801C15.7665 70.5321 7.43029 75.1749 0.985028 82.8387C0.638794 83.2521 0.292561 83.6973 -0.0270386 84.1425V85.4145H-0.000405148Z" fill="#181818"/>
<path d="M147.362 23.3094C144.912 14.5326 140.118 5.724 133.619 0H132.448C139.239 5.5968 144.193 14.5962 146.723 23.5638C151.251 39.591 150.585 58.2576 144.726 80.5812C139.266 101.378 130.716 123.416 119.957 144.372C110.475 162.816 98.4634 177.158 83.3623 193.026C82.6965 193.726 82.004 194.457 81.2849 195.22C71.6437 205.428 58.4335 219.388 45.5696 219.388C43.5455 219.388 41.548 219.038 39.6837 218.307C26.873 213.41 19.4956 197.955 13.4232 181.991C7.61713 166.791 3.56887 150.732 0 134.705V137.789C3.40907 152.894 7.3508 167.999 12.8106 182.341C18.9363 198.464 26.4203 214.078 39.4706 219.07C41.4148 219.802 43.4656 220.183 45.5696 220.183C58.6999 220.183 71.9899 206.096 81.7111 195.793C82.4302 195.029 83.1226 194.298 83.7885 193.598C98.9428 177.698 111.008 163.293 120.516 144.785C131.302 123.797 139.905 101.665 145.365 80.8356C151.277 58.3212 151.943 39.4956 147.362 23.3094Z" fill="#181818"/>
<path d="M49.2451 193.726C43.0662 193.726 37.5264 191.086 32.839 185.871C19.975 171.561 15.6072 149.937 12.8107 128.726C12.7041 125.833 12.7041 123.352 12.7574 121.063C12.9705 112.763 14.675 100.901 21.4399 91.7748C26.2339 85.2876 32.5726 80.6766 38.7249 76.2246C39.6571 75.525 40.6159 74.8572 41.5481 74.1576C56.9954 62.7414 73.4282 50.1804 88.8489 35.7114C99.3424 25.8534 108.637 20.8608 116.494 20.8608C122.673 20.8608 128 23.9772 132.288 30.1146C141.876 43.8204 138.307 65.1264 134.818 79.9452C124.884 121.858 105.308 156.901 79.7136 178.621C72.0166 185.076 60.511 193.726 49.2451 193.726ZM116.468 21.624C108.771 21.624 99.5821 26.553 89.2217 36.2838C73.7744 50.7846 57.3416 63.3456 41.8677 74.7936C40.9355 75.4932 40.0033 76.161 39.0445 76.8606C32.9455 81.2808 26.6334 85.86 21.9193 92.2518C15.2876 101.219 13.6363 112.858 13.4232 121.063C13.37 123.32 13.37 125.801 13.4765 128.631C16.2464 149.651 20.561 171.116 33.2917 185.267C37.8727 190.355 43.226 192.931 49.2451 192.931C60.3246 192.931 71.697 184.345 79.2875 177.921C104.749 156.329 124.218 121.412 134.126 79.6908C137.588 65.0628 141.13 44.043 131.729 30.6234C127.6 24.645 122.46 21.624 116.468 21.624Z" fill="#181818"/>
<path d="M226.969 472.325C225.718 472.325 224.439 472.294 223.187 472.166C206.169 470.799 187.792 463.644 168.509 450.892C131.888 426.692 118.598 379.151 113.884 343.567C112.339 322.039 124.404 310.495 134.791 304.58C147.069 297.584 160.546 293.101 173.596 288.744C179.003 286.931 184.596 285.087 189.976 283.084C206.968 276.755 227.182 270.014 248.356 268.169C251.472 267.883 254.721 267.756 258.024 267.756C271.207 267.756 284.098 269.887 296.562 271.954C306.683 273.639 319.307 275.738 331.638 275.738C352.572 275.738 368.206 269.441 379.392 256.531C391.457 242.634 400.965 222.25 405.546 200.626C410.872 175.409 406.984 148.856 402.989 128.567C398.328 104.749 390.391 88.9446 378.753 80.1996C377.101 78.9594 375.29 77.7192 373.399 76.4154C364.184 70.0236 353.744 62.805 351.347 50.4348C349.376 40.2588 353.664 31.2276 362.054 27.9522C364.078 27.1572 366.235 26.7756 368.419 26.7756C373.586 26.7756 379.179 28.938 385.571 33.3582C388.82 35.616 391.963 38.2236 394.999 40.7676C399.66 44.6472 404.454 48.654 409.78 51.4206C416.812 55.0458 424.935 57.2082 434.683 58.035C438.012 58.3212 441.421 58.4484 445.096 58.4484C455.377 58.4484 466.03 57.3354 476.311 56.286C486.671 55.2048 497.378 54.0918 507.791 54.0918C523.851 54.0918 536.742 56.7312 548.354 62.4234C562.123 69.165 573.496 82.3302 582.178 101.601C592.485 124.497 600.848 147.011 607.054 168.508C614.005 192.517 612.726 214.364 603.298 233.348C596.214 247.627 586.945 260.283 577.997 272.494C574.827 276.819 571.525 281.303 568.409 285.787C565.399 290.08 562.469 294.659 559.646 299.047C552.269 310.527 544.652 322.388 534.771 331.165C519.616 344.585 500.76 346.143 487.896 346.143C485.978 346.143 484.008 346.111 481.904 346.048C476.95 345.857 471.836 345.443 466.909 345.03C460.171 344.489 453.193 343.917 446.348 343.917C437.479 343.917 430.235 344.871 423.47 346.874C410.34 350.786 399.26 360.167 388.527 369.23C384.319 372.791 379.978 376.48 375.557 379.756C365.729 387.101 354.916 393.016 344.476 398.708C337.151 402.715 329.561 406.849 322.397 411.46C308.947 420.078 296.562 430.954 284.604 441.479C281.088 444.564 277.466 447.744 273.871 450.829C256.692 465.488 241.804 472.325 226.969 472.325ZM258.024 268.551C254.721 268.551 251.499 268.678 248.383 268.964C227.289 270.809 207.101 277.519 190.135 283.847C184.755 285.85 179.162 287.726 173.756 289.539C160.732 293.864 147.256 298.379 135.058 305.312C124.857 311.099 113.032 322.452 114.55 343.472C119.237 378.865 132.448 426.152 168.829 450.193C188.005 462.881 206.328 470.004 223.241 471.371C224.492 471.467 225.744 471.53 226.969 471.53C241.671 471.53 256.452 464.757 273.471 450.161C277.067 447.076 280.689 443.896 284.204 440.812C296.216 430.286 308.6 419.378 322.077 410.729C329.268 406.118 336.858 401.952 344.209 397.945C354.623 392.253 365.409 386.37 375.21 379.024C379.605 375.749 383.946 372.06 388.154 368.53C398.941 359.435 410.073 349.991 423.31 346.048C430.102 344.012 437.426 343.09 446.348 343.09C453.219 343.09 460.197 343.663 466.936 344.203C471.863 344.585 476.95 345.03 481.904 345.189C484.008 345.253 485.978 345.316 487.896 345.316C500.68 345.316 519.377 343.79 534.371 330.497C544.199 321.816 551.789 309.986 559.114 298.538C561.937 294.118 564.893 289.571 567.903 285.246C571.045 280.762 574.321 276.278 577.517 271.922C586.466 259.711 595.708 247.086 602.766 232.871C612.087 214.078 613.312 192.485 606.441 168.699C600.235 147.234 591.899 124.783 581.619 101.919C573.016 82.8072 561.75 69.7692 548.141 63.0912C536.608 57.4626 523.798 54.8232 507.844 54.8232C497.457 54.8232 486.751 55.9362 476.417 56.9856C466.11 58.035 455.457 59.148 445.15 59.148C441.448 59.148 438.012 59.0208 434.683 58.7346C424.882 57.9078 416.652 55.7136 409.567 52.0566C404.188 49.2582 399.34 45.2196 394.679 41.3082C391.67 38.796 388.527 36.1884 385.304 33.9306C379.019 29.574 373.506 27.4434 368.472 27.4434C366.342 27.4434 364.264 27.825 362.32 28.5882C354.303 31.7046 350.175 40.3542 352.066 50.1168C354.383 62.1372 364.69 69.2922 373.799 75.5886C375.69 76.8924 377.501 78.1644 379.152 79.4046C390.951 88.245 398.967 104.24 403.681 128.249C407.676 148.633 411.592 175.313 406.238 200.69C401.631 222.473 392.043 242.984 379.898 257.008C368.579 270.077 352.785 276.437 331.665 276.437C319.307 276.437 306.656 274.339 296.509 272.653C284.045 270.682 271.181 268.551 258.024 268.551Z" fill="#181818"/>
<path d="M799 130.507C796.603 130.062 794.259 129.553 791.915 129.013C788.453 128.218 784.858 127.423 781.209 126.914C761.474 124.179 745.36 125.387 730.526 130.698L728.395 131.461C715.478 136.136 700.803 141.446 690.096 130.189C681.041 120.681 679.842 103.032 683.358 90.5028C689.537 68.4018 711.083 59.7522 728.395 52.8198C730.499 51.9612 732.576 51.1344 734.547 50.3076C737.797 48.9402 741.072 47.5092 744.242 46.1418C755.454 41.2128 767.067 36.1566 779.052 33.8352C785.47 32.595 792.129 32.0862 798.973 32.277V29.097C791.995 28.9062 785.177 29.415 778.625 30.687C766.374 33.0402 754.655 38.1918 743.31 43.1526C740.167 44.52 736.891 45.951 733.668 47.3184C731.698 48.1452 729.647 48.972 727.543 49.7988C709.672 56.9538 687.433 65.8896 680.801 89.517C677.019 103.064 678.378 122.239 688.312 132.67C693.585 138.203 699.711 140.111 706.05 140.111C713.88 140.111 722.003 137.185 729.167 134.578L731.298 133.814C745.76 128.631 761.527 127.486 780.916 130.126C784.458 130.603 788 131.398 791.436 132.193C793.913 132.733 796.443 133.306 799 133.783V130.507Z" fill="#181818"/>
<path d="M54.8114 173.66C51.136 173.66 47.6204 172.801 44.3179 171.116C32.4128 164.978 28.3379 147.107 26.9796 136.994L26.9529 136.772C26.9263 136.072 26.9263 135.373 26.8997 134.641C26.6866 126.055 26.4203 116.356 30.5751 108.502C34.863 100.361 39.4173 94.128 44.9304 88.881C52.3878 81.7896 60.5908 75.7794 68.5009 69.9282C72.3628 67.098 76.3578 64.1406 80.2196 61.1196C80.8854 60.579 81.6045 60.0384 82.3503 59.4342C89.3282 53.8692 99.8484 45.474 109.223 45.474C112.206 45.474 114.923 46.3326 117.293 47.9862C123.366 52.2792 125.523 61.9782 123.685 76.8288C119.93 107.071 105.468 138.33 86.8779 156.456C75.1859 167.904 64.3994 173.66 54.8114 173.66ZM29.6429 136.581C30.9213 146.057 34.6766 162.657 45.3832 168.158C48.3395 169.685 51.5089 170.448 54.8114 170.448C63.7602 170.448 73.9874 164.915 85.1734 154.007C103.284 136.358 117.373 105.894 121.022 76.4154C122.167 67.1934 122.22 55.2684 115.935 50.8164C113.991 49.449 111.727 48.7176 109.223 48.7176C100.674 48.7176 90.5533 56.7948 83.8417 62.1372C83.096 62.7414 82.3769 63.3138 81.6844 63.8544C77.796 66.9072 73.801 69.8646 69.9125 72.6948C62.0557 78.4824 53.9325 84.4608 46.6083 91.425C41.3616 96.4176 36.9937 102.396 32.8655 110.251C29.1635 117.278 29.4032 126.055 29.6163 134.578C29.6163 135.245 29.6429 135.913 29.6429 136.581Z" fill="#181818"/>
<path d="M799 105.163C793.54 104.717 787.654 103.763 780.969 102.269L780.41 102.142C771.621 100.17 759.583 97.4988 753.697 88.881C751.832 86.1462 751.193 83.2206 751.779 80.2314C753.777 70.2462 768.771 61.374 775.136 58.035C782.168 54.3462 791.09 53.9964 799 53.7102V52.9152C791.01 53.1696 782.035 53.5194 774.87 57.3036C768.425 60.7062 753.191 69.7056 751.113 80.0406C750.447 83.2842 751.14 86.4324 753.164 89.3898C759.21 98.262 771.381 100.965 780.277 102.937L780.836 103.064C787.574 104.558 793.487 105.512 799 105.958V105.163Z" fill="#181818"/>
<path d="M229.686 457.475C218.313 457.475 206.542 453.977 195.622 447.394C181.187 438.681 168.056 425.134 157.696 408.217C147.575 391.681 140.464 372.696 137.188 353.298L137.162 353.171C135.697 337.652 142.648 324.614 157.803 314.407C171.465 305.216 187.286 297.044 206.195 289.475C223.747 282.448 239.966 279.013 255.733 279.013C257.864 279.013 260.048 279.077 262.152 279.204C276.188 280.063 290.33 282.988 304.02 285.818C309.346 286.931 314.859 288.076 320.266 289.062C323.568 289.666 326.924 290.366 330.2 291.034C341.306 293.291 352.759 295.613 363.971 295.613C366.448 295.613 368.845 295.486 371.162 295.263C378.06 294.595 385.757 292.846 390.791 284.992C394.653 278.95 397.21 271.508 399.686 264.29C400.166 262.922 400.619 261.587 401.098 260.251C402.137 257.326 403.202 254.368 404.267 251.379C410.34 234.557 416.599 217.194 418.809 199.291C421.02 181.324 418.916 162.212 416.892 143.672C416.439 139.57 415.986 135.341 415.587 131.27C413.509 110.251 412.95 87.0048 432.419 77.6238C450.077 69.1014 469.439 68.2428 488.189 67.3842L490.266 67.2888C494.208 67.098 497.67 67.0344 500.84 67.0344C519.803 67.0344 533.572 70.2144 545.504 77.4012C561.324 86.9094 571.152 105.194 578.662 121.858C580.047 124.91 581.512 128.059 582.897 131.08C590.434 147.329 598.265 164.152 601.434 182.437C604.87 202.248 600.395 222.886 588.517 242.125C583.243 250.679 577.064 258.534 571.125 266.166C570.326 267.184 569.554 268.201 568.755 269.187C566.677 271.858 564.653 274.688 562.682 277.455C559.06 282.575 555.278 287.854 550.964 292.337C548.647 294.722 546.383 297.33 544.172 299.81C539.645 304.962 534.957 310.304 529.444 314.407C521.72 320.131 512.745 324.169 502.811 326.3C496.712 327.635 490.32 328.271 483.342 328.271C469.146 328.271 454.924 325.6 441.155 322.993C438.864 322.547 436.574 322.039 434.123 321.498C427.731 320.099 421.153 318.604 414.841 318.604C405.626 318.604 399.047 321.752 394.147 328.558C391.111 332.755 388.421 337.398 385.81 341.914C382.854 347.002 379.818 352.249 376.249 356.923C369.804 365.382 362.56 372.569 354.756 378.293C348.364 382.967 341.786 387.578 335.447 392.03C323.915 400.108 311.983 408.471 300.717 417.534C297.148 420.396 293.526 423.481 290.01 426.47C277.626 436.964 264.815 447.839 250.3 453.563C243.722 456.139 236.77 457.475 229.686 457.475ZM139.825 352.726C146.403 391.553 168.775 427.583 196.82 444.532C207.367 450.892 218.74 454.263 229.686 454.263C236.477 454.263 243.162 452.991 249.528 450.479C263.67 444.914 276.294 434.197 288.519 423.83C292.035 420.841 295.683 417.757 299.279 414.863C310.598 405.768 322.556 397.373 334.142 389.264C340.481 384.812 347.059 380.233 353.398 375.558C360.988 369.993 368.046 362.997 374.305 354.761C377.767 350.245 380.75 345.062 383.653 340.069C386.317 335.49 389.06 330.784 392.176 326.459C397.556 319.018 404.986 315.392 414.894 315.392C421.446 315.392 428.157 316.887 434.656 318.35C437.08 318.89 439.397 319.399 441.634 319.813C455.297 322.388 469.439 325.06 483.422 325.06C490.266 325.06 496.472 324.424 502.411 323.152C512.026 321.053 520.682 317.205 528.112 311.672C533.386 307.76 537.967 302.513 542.388 297.489C544.598 294.945 546.889 292.337 549.259 289.889C553.414 285.596 557.116 280.381 560.685 275.356C562.656 272.558 564.707 269.696 566.837 266.961C567.636 265.943 568.435 264.926 569.208 263.908C575.12 256.372 581.219 248.581 586.413 240.185C594.376 227.306 602.979 206.923 598.85 183.073C595.761 165.296 588.064 148.697 580.607 132.638C579.195 129.585 577.73 126.437 576.345 123.384C569.021 107.198 559.486 89.3898 544.332 80.295C532.8 73.3626 519.403 70.278 500.893 70.278C497.75 70.278 494.315 70.3734 490.4 70.5324L488.322 70.6278C469.812 71.4546 450.663 72.3132 433.458 80.6448C415.746 89.199 416.252 110.155 418.277 130.921C418.676 134.991 419.129 139.189 419.582 143.291C421.632 162.021 423.763 181.387 421.499 199.799C419.235 218.116 412.897 235.702 406.771 252.683C405.706 255.64 404.64 258.598 403.602 261.523C403.149 262.859 402.669 264.194 402.217 265.53C399.66 272.939 397.05 280.603 392.948 286.963C387.302 295.804 378.886 297.743 371.428 298.475C369.058 298.697 366.555 298.825 364.024 298.825C352.572 298.825 341.013 296.471 329.801 294.214C326.551 293.546 323.169 292.878 319.893 292.274C314.46 291.256 308.947 290.111 303.593 289.03C289.984 286.2 275.921 283.306 262.045 282.448C259.968 282.32 257.864 282.257 255.76 282.257C240.259 282.257 224.333 285.628 207.048 292.528C188.298 300.033 172.637 308.11 159.108 317.205C145.019 326.681 138.52 338.638 139.825 352.726Z" fill="#181818"/>
<path d="M485.499 304.485C472.742 304.485 460.57 301.591 451.222 296.376C439.29 289.698 431.913 279.522 429.276 266.134C427.944 252.079 430.182 238.214 432.312 224.826C433.484 217.544 434.683 209.975 435.322 202.502C436.574 187.556 435.189 173.437 433.724 158.523C433.378 154.993 433.031 151.336 432.712 147.711C431.513 133.783 431.247 116.134 439.983 103.096C447.094 92.4744 458.626 86.4642 475.272 84.6516C481.397 83.9838 486.937 83.6658 492.157 83.6658C504.622 83.6658 515.142 85.5102 524.357 89.2626C540.364 95.8134 554.293 109.106 564.68 127.741C574.321 145.04 584.628 165.455 587.824 185.776C591.047 206.191 585.587 225.335 570.592 246.005C553.014 270.236 525.502 302.672 489.521 304.39C488.189 304.453 486.857 304.485 485.499 304.485ZM492.157 84.4608C486.937 84.4608 481.451 84.7788 475.325 85.4466C458.892 87.2274 447.493 93.1422 440.489 103.573C431.913 116.388 432.179 133.846 433.351 147.616C433.671 151.241 434.017 154.898 434.363 158.428C435.828 173.405 437.213 187.556 435.961 202.598C435.348 210.103 434.123 217.671 432.951 224.985C430.821 238.341 428.61 252.142 429.915 266.007C436.787 300.955 474.18 303.69 485.499 303.69C486.831 303.69 488.162 303.658 489.467 303.595C525.209 301.877 552.588 269.6 570.086 245.464C584.921 224.985 590.354 206.064 587.158 185.935C583.962 165.742 573.709 145.421 564.121 128.186C553.84 109.742 539.991 96.5448 524.144 90.0258C515.009 86.2734 504.542 84.4608 492.157 84.4608Z" fill="#181818"/>
<path d="M61.7095 146.757C56.6491 146.757 50.0707 144.404 47.5139 133.242C45.0104 110.95 63.7336 96.9264 71.91 91.9338C75.3191 89.835 84.4011 84.3018 91.1127 84.3018C95.1609 84.3018 97.7444 86.2734 98.8097 90.1848C101.766 101.156 95.2142 116.261 93.1368 120.617C89.1152 129.076 83.5488 136.072 77.1035 140.874C72.0432 144.626 66.4502 146.757 61.7095 146.757ZM91.1127 85.0968C84.5609 85.0968 75.5854 90.5664 72.203 92.6334C64.1597 97.5624 45.7295 111.332 48.1797 133.051C50.63 143.672 56.8888 145.93 61.7095 145.93C66.317 145.93 71.8035 143.831 76.7307 140.174C83.096 135.436 88.5559 128.536 92.5509 120.204C94.6016 115.911 101.047 101.092 98.1705 90.4074C97.2117 86.9094 94.8413 85.0968 91.1127 85.0968Z" fill="#181818"/>
<path d="M491.891 282.352C491.864 282.352 491.891 282.352 491.891 282.352C481.877 282.352 472.688 278.791 464.619 271.763C454.258 262.763 449.89 247.022 451.275 223.713C452.634 200.753 450.663 178.78 448.559 155.502C448.346 153.181 448.132 150.827 447.946 148.506C447.041 129.935 451.515 116.706 461.236 109.169C468.56 103.509 477.935 100.615 489.095 100.615C494.102 100.615 499.295 101.219 504.542 102.364C521.481 106.148 537.035 116.801 549.499 133.21C563.188 151.209 572.297 171.784 574.561 189.623C576.798 207.559 570.859 224.508 555.784 243.016C548.247 252.269 521.481 282.352 491.891 282.352ZM489.068 101.442C478.042 101.442 468.8 104.272 461.582 109.869C452.074 117.215 447.706 130.189 448.585 148.442C448.798 150.764 449.011 153.085 449.224 155.438C451.222 177.698 453.299 200.753 451.941 223.777C450.556 246.8 454.844 262.286 464.991 271.095C472.955 278.027 482.01 281.525 491.891 281.525C521.241 281.525 547.821 251.633 555.278 242.475C570.166 224.158 576.079 207.431 573.868 189.782C571.631 172.07 562.576 151.654 548.993 133.783C536.608 117.501 521.214 106.912 504.409 103.159C499.189 102.014 494.022 101.442 489.068 101.442Z" fill="#181818"/>
<path d="M246.678 156.742C237.756 156.742 227.582 151.845 224.945 140.906C223.933 133.814 225.797 126.119 229.926 120.268C233.841 114.703 239.194 111.523 244.654 111.523C246.651 111.523 248.649 111.936 250.593 112.795C256.08 115.18 263.377 121.73 266.36 130.444C268.011 135.245 268.011 140.047 266.36 144.277C263.377 151.94 255.813 156.742 246.678 156.742ZM244.654 112.318C239.38 112.318 234.214 115.402 230.432 120.776C226.437 126.437 224.652 133.91 225.611 140.715C228.141 151.209 238.022 155.915 246.678 155.915C255.547 155.915 262.871 151.304 265.774 143.895C267.372 139.793 267.372 135.373 265.747 130.698C262.818 122.207 255.733 115.847 250.353 113.494C248.516 112.731 246.571 112.318 244.654 112.318Z" fill="#181818"/>
<path d="M504.222 252.11C504.196 252.11 504.196 252.11 504.222 252.11C501.559 252.11 498.976 251.761 496.525 251.093C481.264 246.959 476.737 229.405 475.405 219.325C474.153 209.816 473.408 200.054 472.688 190.609C472.049 182.15 471.383 173.405 470.371 164.883L470.345 164.724C469.945 153.785 469.306 135.5 481.824 129.458C485.632 127.613 489.76 126.691 494.102 126.691C505.447 126.691 515.941 132.924 522.732 138.171C538.925 150.637 563.695 179.797 553.92 210.039C546.569 232.84 523.798 252.11 504.222 252.11ZM473.035 164.533C474.073 173.119 474.739 181.864 475.378 190.355C476.071 199.736 476.817 209.435 478.068 218.848C479.293 228.133 483.422 244.288 497.138 247.976C499.402 248.581 501.799 248.899 504.249 248.899C522.839 248.899 544.465 230.582 551.47 208.894C560.605 180.592 536.821 152.863 521.321 140.906C514.822 135.913 504.835 129.935 494.128 129.935C490.133 129.935 486.351 130.793 482.862 132.479C472.928 137.249 472.555 151.495 473.035 164.533Z" fill="#181818"/>
<path d="M275.575 477C277.653 474.615 279.677 472.23 281.701 469.845C286.735 463.898 291.955 457.761 297.468 452.26C312.462 437.345 328.682 426.215 345.648 419.124C355.502 415.022 365.836 412.351 375.85 409.775C385.065 407.39 394.573 404.941 403.708 401.38C405.519 400.68 407.41 399.885 409.354 399.09C424.615 392.857 443.578 385.098 457.987 394.511C461.849 397.055 463.979 400.235 464.299 403.955C465.151 414.259 452.314 427.201 444.644 434.929C442.912 436.678 441.421 438.204 440.302 439.412C430.075 450.797 421.313 463.517 413.563 476.968H414.388C422.059 463.708 430.714 451.21 440.782 440.017C441.874 438.808 443.365 437.314 445.096 435.565C453.379 427.201 465.87 414.608 464.991 403.86C464.645 399.853 462.408 396.451 458.333 393.779C443.685 384.208 424.535 392.03 409.168 398.295C407.224 399.09 405.333 399.853 403.522 400.585C394.44 404.146 384.932 406.595 375.743 408.98C365.702 411.556 355.342 414.259 345.461 418.361C328.416 425.452 312.143 436.646 297.095 451.624C291.555 457.125 286.335 463.294 281.301 469.241C279.117 471.817 276.907 474.424 274.67 476.968H275.575V477Z" fill="#181818"/>
<path d="M89.3548 462.595C80.699 457.634 75.8517 452.005 74.1472 444.85C72.0964 436.328 74.0407 427.328 75.9316 418.615C76.1447 417.661 76.3311 416.707 76.5442 415.753C82.1638 389.009 80.9653 367.258 72.8954 349.291C65.0919 331.928 51.6687 321.148 38.6716 310.781C25.4881 300.224 11.8252 289.285 4.1548 271.413C2.5568 267.724 1.1985 263.876 0 259.965V262.223C1.06533 265.466 2.21057 268.678 3.54223 271.763C11.3192 289.857 25.0353 300.828 38.2987 311.449C51.2159 321.784 64.5858 332.469 72.2829 349.673C80.2729 367.481 81.4447 389.009 75.8784 415.562C75.6919 416.516 75.4789 417.439 75.2658 418.393C73.4547 426.788 71.404 436.328 73.4814 445.041C75.7985 454.74 83.4689 460.082 89.0352 463.262C99.369 469.177 110.262 473.47 121.128 476.936H123.765C112.126 473.375 100.408 468.923 89.3548 462.595Z" fill="#181818"/>
<path d="M747.731 473.12C749.995 474.551 752.312 475.855 754.629 477H756.44C753.59 475.664 750.767 474.138 748.024 472.389C719.153 454.136 691.881 413.114 696.222 376.13C698.646 355.588 709.192 335.681 718.487 318.159C719.766 315.742 721.018 313.357 722.243 311.036C723.601 308.428 724.959 305.821 726.291 303.245C735.24 285.977 744.508 268.106 755.082 251.792C763.365 239.009 773.086 227.465 782.461 216.304C786.935 210.961 791.596 205.46 796.044 199.831C796.949 198.686 797.961 197.446 798.947 196.111V194.902C797.775 196.492 796.576 197.987 795.511 199.354C791.09 204.919 786.456 210.421 781.955 215.763C772.553 226.957 762.805 238.5 754.496 251.315C743.922 267.629 734.654 285.532 725.678 302.831C724.32 305.439 722.989 308.047 721.63 310.622C720.405 312.976 719.153 315.329 717.875 317.746C708.527 335.363 697.953 355.333 695.503 376.067C692.813 398.836 701.735 419.569 709.698 432.957C719.579 449.398 733.429 464.057 747.731 473.12Z" fill="#181818"/>
<path d="M585.108 477C586.493 474.869 587.878 472.771 589.236 470.735C590.647 468.668 592.059 466.601 593.497 464.534C601.86 452.45 610.543 439.953 614.884 424.88C620.85 404.242 613.872 386.752 606.494 368.244L605.456 365.605C597.679 345.984 596.134 328.335 600.742 311.672C605.536 294.277 615.55 279.458 624.552 266.929C626.682 263.972 628.893 260.983 631.024 258.089C638.667 247.754 646.551 237.101 652.703 225.017C653.848 222.759 655.02 220.406 656.139 218.116C663.064 204.061 670.201 189.528 682.586 182.723C687.326 180.115 692.493 178.589 697.474 177.126C700.936 176.108 704.532 175.027 707.941 173.628C713.853 171.179 719.659 168.063 725.252 165.042C728.848 163.102 732.577 161.099 736.279 159.286C755.614 149.905 773.565 148.919 789.652 156.361C792.688 157.76 796.044 159.636 798.973 161.957V161.003C796.47 159.064 793.434 157.251 789.891 155.597C773.645 148.061 755.534 149.078 736.039 158.523C732.31 160.336 728.582 162.339 724.986 164.279C719.42 167.3 713.64 170.416 707.754 172.833C704.345 174.232 700.776 175.282 697.341 176.331C692.307 177.826 687.113 179.352 682.319 181.991C669.748 188.924 662.531 203.552 655.58 217.735C654.461 220.024 653.289 222.377 652.144 224.635C646.018 236.624 638.135 247.277 630.518 257.58C628.387 260.474 626.176 263.463 624.046 266.42C614.99 278.981 604.95 293.896 600.102 311.417C595.441 328.303 597.013 346.143 604.87 365.923L605.908 368.562C613.206 386.911 620.131 404.242 614.245 424.562C609.93 439.476 601.327 451.91 592.991 463.962C591.553 466.029 590.115 468.096 588.703 470.195C587.238 472.357 585.72 474.615 584.229 476.936H585.108V477Z" fill="#181818"/>
<path d="M51.1893 357.496C44.5309 340.673 31.8801 329.925 19.6288 319.526C12.8639 313.771 5.93923 307.888 0 300.955V302.068C5.85933 308.81 12.6242 314.566 19.2559 320.194C31.4273 330.529 44.0249 341.214 50.6033 357.845C64.213 392.253 34.6766 423.926 15.1277 444.882L12.7574 447.426C8.33623 452.196 3.96837 457.22 0 462.785V464.057C4.04827 458.238 8.60257 452.959 13.1835 448.03L15.5539 445.486C35.2625 424.339 65.012 392.444 51.1893 357.496Z" fill="#181818"/>
<path d="M605.456 464.852C602.792 468.827 600.129 472.866 597.546 477H600.901C603.085 473.566 605.322 470.195 607.533 466.856C610.516 462.372 613.605 457.761 616.429 453.086C626.629 436.36 639.333 415.531 633.82 393.112C631.53 383.762 627.135 375.494 622.9 367.481C617.281 356.86 611.981 346.843 610.915 334.345C607.826 298.093 633.341 269.696 653.848 246.863L655.5 245.019C668.097 230.963 679.789 218.848 695.343 212.424C702.188 209.594 709.512 208.195 716.57 206.827C717.981 206.541 719.42 206.287 720.831 206C721.337 205.905 721.923 205.778 722.562 205.651C727.649 204.538 737.131 202.502 741.472 206.128C742.671 207.145 743.39 208.544 743.656 210.389C744.455 215.986 742.484 223.013 740.726 229.183C740.3 230.645 739.901 232.045 739.554 233.38C737.264 242.221 734.521 251.125 731.138 260.601C725.519 276.406 718.461 292.91 708.953 312.594C706.662 317.332 704.026 322.293 701.229 327.508C688.019 352.28 673.051 380.36 683.012 408.566C688.818 425.007 699.098 440.621 707.408 452.387C714.013 461.736 720.884 469.94 727.942 476.905H732.23C724.4 469.559 716.756 460.655 709.459 450.32C701.282 438.713 691.162 423.353 685.489 407.326C676.061 380.678 690.629 353.362 703.493 329.257C706.289 323.978 708.953 319.018 711.27 314.216C720.831 294.404 727.942 277.773 733.615 261.873C737.024 252.269 739.821 243.27 742.138 234.334C742.457 233.03 742.857 231.663 743.283 230.2C745.147 223.649 747.251 216.24 746.319 209.816C745.92 207.113 744.828 204.983 743.017 203.488C737.77 199.068 727.969 201.199 722.11 202.471C721.497 202.598 720.911 202.725 720.405 202.82C718.993 203.107 717.582 203.393 716.17 203.647C708.979 205.046 701.549 206.477 694.491 209.371C678.431 215.986 666.526 228.356 653.689 242.634L652.037 244.478C631.103 267.788 605.029 296.821 608.252 334.663C609.371 347.892 615.097 358.736 620.637 369.166C624.765 376.989 629.053 385.066 631.237 393.97C636.377 414.831 624.126 434.96 614.271 451.115C611.475 455.789 608.412 460.4 605.456 464.852Z" fill="#181818"/>
<path d="M799 469.781C795.218 470.227 791.33 470.386 787.361 470.29C771.541 469.877 756.44 464.153 743.656 453.754C731.698 444.023 721.63 430.604 714.519 414.99C710.231 405.545 708.02 397.945 707.301 390.313C706.476 381.409 706.955 371.138 708.473 364.142C711.43 350.849 718.487 337.652 724.72 326.014C725.838 323.947 726.93 321.88 727.995 319.844C737.317 302.1 747.385 285.723 757.905 271.19C768.718 256.308 780.17 242.952 791.942 231.504C794.259 229.246 796.603 227.116 798.973 225.049V224.063C796.47 226.225 793.966 228.483 791.516 230.868C779.691 242.316 768.212 255.704 757.399 270.65C746.852 285.214 736.758 301.623 727.41 319.399C726.344 321.403 725.252 323.47 724.134 325.568C717.875 337.239 710.79 350.5 707.807 363.919C706.236 370.979 705.757 381.377 706.609 390.377C707.328 398.136 709.565 405.832 713.906 415.372C721.071 431.113 731.191 444.628 743.256 454.422C756.147 464.916 771.381 470.672 787.335 471.085C788.107 471.117 788.879 471.117 789.625 471.117C792.794 471.117 795.91 470.926 798.973 470.576V469.781H799Z" fill="#181818"/>
<path d="M799 456.171C797.881 456.298 796.763 456.425 795.644 456.521C781.315 457.57 767.333 453.881 755.268 445.9C735.453 432.766 716.437 405.895 718.647 375.494C719.872 358.704 726.584 343.79 732.976 331.451C741.019 315.901 750.421 301.114 760.888 287.472C771.035 274.211 782.194 261.778 794.02 250.52C795.538 249.089 797.216 247.499 799.027 245.814V244.796C797.056 246.609 795.218 248.358 793.593 249.884C781.742 261.173 770.556 273.607 760.382 286.931C749.888 300.605 740.487 315.456 732.39 331.038C725.945 343.472 719.207 358.45 717.981 375.431C716.969 389.296 720.405 403.701 727.916 417.089C734.601 429.014 744.215 439.508 754.948 446.631C765.788 453.818 778.093 457.538 790.85 457.538C792.448 457.538 794.073 457.475 795.697 457.348C796.816 457.284 797.935 457.157 799.027 457.03V456.171H799Z" fill="#181818"/>
<path d="M799 444.659C798.814 444.691 798.654 444.723 798.467 444.755C785.976 446.536 772.66 443.387 760.968 435.851C739.315 421.891 726.744 396.514 728.954 371.201C731.458 342.613 749.089 318.286 765.415 297.743C774.098 286.804 784.032 275.992 795.804 264.608C796.816 263.622 797.908 262.604 799 261.587V260.569C797.748 261.714 796.55 262.891 795.378 264.004C783.606 275.388 773.645 286.232 764.936 297.203C748.53 317.841 730.819 342.295 728.288 371.138C726.051 396.769 738.755 422.431 760.648 436.582C770.289 442.815 781.049 446.09 791.543 446.09C793.886 446.09 796.23 445.931 798.547 445.582C798.68 445.55 798.84 445.518 798.973 445.518V444.659H799Z" fill="#181818"/>
<path d="M654.674 374.286C649.8 374.286 645.326 371.106 641.597 367.958C630.677 358.831 622.608 343.09 621.036 327.826C619.944 303.34 633.687 279.204 661.838 256.054C671.107 248.422 681.094 241.394 691.375 241.394C693.718 241.394 696.036 241.775 698.246 242.539C709.832 246.514 712.655 260.633 711.536 271.54C708.18 304.517 689.91 334.695 672.465 359.881C668.577 365.477 664.235 371.774 658.11 373.777C656.964 374.095 655.819 374.286 654.674 374.286ZM691.375 242.189C681.281 242.189 671.373 249.153 662.211 256.721C634.273 279.713 620.637 303.595 621.702 327.763C623.247 342.772 631.21 358.322 641.97 367.322C645.619 370.375 649.987 373.491 654.674 373.491C655.766 373.491 656.858 373.3 657.897 372.982C663.809 371.042 668.097 364.873 671.879 359.404C689.297 334.25 707.515 304.199 710.844 271.445C711.936 260.855 709.219 247.15 698.033 243.302C695.902 242.539 693.665 242.189 691.375 242.189Z" fill="#181818"/>
<path d="M799 431.526C789.758 433.021 780.17 431.526 771.381 427.074C752.152 417.311 739.581 395.942 740.114 373.873C740.726 348.369 756.36 326.077 771.594 307.633C779.425 298.125 788.4 288.553 799 278.345V274.211C798.601 274.593 798.201 274.975 797.802 275.356C786.935 285.818 777.72 295.613 769.703 305.375C754.123 324.265 738.09 347.161 737.45 373.777C736.891 397.182 750.128 419.792 770.343 430.063C777.267 433.561 784.671 435.342 792.022 435.342C794.366 435.342 796.683 435.151 799 434.801V431.526Z" fill="#181818"/>
<path d="M799 419.76C791.889 421.159 784.298 420.714 776.681 417.121C761.847 410.093 748.05 391.49 750.341 369.452C752.765 346.334 766.401 327.826 780.783 311.258C786.083 305.153 792.182 298.475 799 292.019V291.002C791.995 297.584 785.737 304.421 780.33 310.654C765.868 327.317 752.152 345.952 749.702 369.325C747.358 391.744 761.367 410.729 776.442 417.852C781.555 420.269 786.669 421.286 791.649 421.286C794.153 421.286 796.603 421.032 799.027 420.555V419.76H799Z" fill="#181818"/>
<path d="M654.408 339.274C647.243 339.274 642.023 334.091 639.68 324.71C637.176 307.188 647.67 291.193 659.175 283.084C661.732 281.271 668.417 277.042 674.702 277.042C680.082 277.042 683.758 280.063 685.595 286.073C689.084 297.33 684.53 311.672 672.092 328.653C667.298 335.204 660.533 339.274 654.408 339.274ZM674.702 277.868C668.603 277.868 662.052 282.002 659.521 283.783C648.202 291.733 637.895 307.442 640.345 324.519C642.583 333.487 647.563 338.479 654.408 338.479C660.347 338.479 666.925 334.504 671.613 328.144C683.864 311.386 688.365 297.33 684.983 286.359C683.225 280.699 679.763 277.868 674.702 277.868Z" fill="#181818"/>
<path d="M799 403.574C795.325 404.337 791.836 404.305 788.453 403.542C774.364 400.33 764.243 385.702 764.856 369.484C765.602 350.786 777.214 335.395 788.506 322.802C791.809 319.113 795.325 315.297 798.973 311.576V310.527C795.138 314.407 791.489 318.382 788.054 322.229C776.681 334.918 764.936 350.468 764.19 369.452C763.524 386.084 773.911 401.062 788.32 404.337C790.078 404.719 791.862 404.941 793.673 404.941C795.404 404.941 797.162 404.75 798.973 404.401V403.574H799Z" fill="#181818"/>
<path d="M235.252 438.077C233.068 438.077 230.858 437.886 228.727 437.536C194.743 431.908 178.363 389.264 171.599 364.364C168.296 346.366 177.165 329.83 197.939 315.17C215.996 302.418 234.267 295.804 252.218 295.517C274.377 295.168 296.988 302.259 311.93 307.57C312.995 307.951 314.14 308.333 315.365 308.778C329.667 313.675 351.24 321.085 351.613 341.055C351.906 356.605 338.536 369.421 328.788 378.738C328.016 379.469 327.27 380.201 326.551 380.9C316.004 391.108 304.233 399.758 292.833 408.153C288.412 411.397 283.831 414.767 279.41 418.17C265.934 428.505 251.259 438.077 235.252 438.077ZM253.922 296.312C253.363 296.312 252.804 296.312 252.218 296.312C234.373 296.599 216.209 303.181 198.258 315.869C177.777 330.338 169.015 346.588 172.238 364.142C178.923 388.819 195.196 431.144 228.807 436.709C230.938 437.059 233.095 437.25 235.252 437.25C251.072 437.25 265.641 427.742 279.037 417.47C283.459 414.068 288.039 410.697 292.487 407.453C303.86 399.09 315.632 390.44 326.125 380.264C326.844 379.565 327.59 378.865 328.362 378.102C338.004 368.848 351.214 356.224 350.921 341.055C350.548 321.689 329.268 314.375 315.152 309.541C313.927 309.128 312.782 308.746 311.717 308.365C297.228 303.181 275.442 296.312 253.922 296.312Z" fill="#181818"/>
<path d="M32.0133 372.473C31.3474 357.877 23.5705 347.192 16.8589 339.497C11.7986 333.709 6.1523 328.303 0 323.342V324.328C5.96587 329.162 11.4523 334.441 16.4061 340.069C23.0378 347.669 30.7082 358.195 31.3741 372.505C31.96 385.511 26.873 396.514 22.5052 403.478C16.1931 413.527 7.99 421.668 0 429.459V430.508C8.1498 422.527 16.5659 414.29 23.0112 403.987C27.459 396.928 32.6258 385.734 32.0133 372.473Z" fill="#181818"/>
<path d="M799 381.95C795.458 382.045 792.049 380.837 789.359 378.42C786.136 375.558 784.325 371.201 784.245 366.209C784.032 353.711 792.182 343.758 799 336.253V335.172C791.995 342.868 783.34 353.107 783.579 366.241C783.659 371.488 785.577 376.067 788.959 379.088C791.676 381.505 795.085 382.777 798.627 382.777C798.76 382.777 798.867 382.777 799 382.777V381.95Z" fill="#181818"/>
<path d="M242.496 418.011C234.4 418.011 227.049 415.244 220.577 409.743C209.365 400.235 201.641 384.176 199.35 365.636C198.392 356.573 200.043 347.542 204.011 340.26C215.171 319.781 238.635 312.499 256.878 312.499C259.915 312.499 262.898 312.689 265.747 313.071C276.321 314.502 286.521 317.269 296.029 321.307C305.378 325.25 315.578 330.656 320.372 340.673C325.14 350.69 321.145 363.092 308.813 376.512C295.47 391.013 279.437 403.86 264.815 411.715C257.065 415.912 249.554 418.011 242.496 418.011ZM256.878 313.325C238.821 313.325 215.57 320.512 204.571 340.737C200.682 347.86 199.058 356.701 200.016 365.573C202.28 383.858 209.897 399.758 220.95 409.139C227.289 414.513 234.533 417.248 242.47 417.248C249.448 417.248 256.878 415.149 264.522 411.047C279.064 403.192 295.044 390.44 308.334 375.971C320.585 362.647 324.447 350.913 319.76 341.119C315.099 331.324 305.032 326.014 295.79 322.134C286.335 318.127 276.188 315.392 265.667 313.961C262.844 313.516 259.888 313.325 256.878 313.325Z" fill="#181818"/>
<path d="M0 348.751C5.1136 354.506 8.44277 361.312 9.588 368.53C11.5322 380.805 5.9925 392.03 0 400.171V401.38C6.28547 393.048 12.278 381.314 10.2538 368.371C9.05533 360.739 5.48647 353.616 0 347.638V348.751Z" fill="#181818"/>
<path d="M252.91 388.691C244.201 388.691 234.001 383.731 231.47 369.739V369.675L231.497 368.975C231.87 360.612 232.216 352.694 238.075 346.556C243.429 340.928 250.513 337.939 258.503 337.939C258.796 337.939 259.116 337.939 259.409 337.97C265.295 338.129 277.946 340.61 283.752 348.751C286.095 352.026 287.054 355.874 286.601 360.135C285.163 373.809 270.089 384.589 260.341 387.578C257.891 388.31 255.387 388.691 252.91 388.691ZM232.11 369.611C234.586 383.095 244.467 387.865 252.884 387.865C255.307 387.865 257.757 387.483 260.154 386.752C269.716 383.826 284.524 373.3 285.909 359.976C286.335 355.937 285.429 352.312 283.219 349.228C277.546 341.309 265.135 338.893 259.355 338.734C259.062 338.734 258.77 338.734 258.477 338.734C250.646 338.734 243.722 341.627 238.502 347.129C232.855 353.044 232.536 360.421 232.136 369.007L232.11 369.611Z" fill="#181818"/>
<path d="M614.351 477C620.557 466.379 627.428 456.33 634.14 446.567L634.912 445.454C635.471 444.659 636.004 443.833 636.59 443.006C642.636 434.102 650.146 423.004 659.947 422.336C671.24 421.573 681.068 435.024 686.927 443.038C689.99 447.203 693.026 451.465 695.982 455.599C701.043 462.658 706.263 469.94 711.616 476.968H712.522C707.035 469.75 701.682 462.308 696.488 455.058C693.532 450.924 690.469 446.663 687.433 442.497C681.494 434.356 671.506 420.714 659.921 421.509C649.827 422.177 642.21 433.434 636.084 442.465C635.525 443.324 634.965 444.119 634.406 444.914L633.634 446.027C626.816 455.948 619.838 466.124 613.552 476.968H614.351V477Z" fill="#181818"/>
<path d="M289.078 477C289.078 477 289.078 476.968 289.078 477C309.053 450.193 330.44 433.847 352.679 428.441C369.724 424.307 383.627 424.021 395.212 427.615C401.178 429.459 405.013 432.703 406.611 437.218C407.304 439.19 410.633 449.175 407.304 452.355L407.197 452.45L407.17 452.578C405.759 461.005 403.255 469.114 400.352 476.968H401.098C403.948 469.209 406.371 461.195 407.81 452.864C411.272 449.334 408.236 439.762 407.224 436.868C405.546 432.13 401.551 428.728 395.372 426.82C383.706 423.194 369.697 423.449 352.545 427.615C330.173 433.052 308.654 449.461 288.599 476.396C288.466 476.587 288.333 476.777 288.199 476.968H289.078V477Z" fill="#181818"/>
<path d="M428.237 477C444.404 457.538 465.551 442.72 488.109 435.088C499.082 431.399 513.997 428.569 522.679 436.105C527.154 440.017 529.604 446.377 529.923 454.994C530.216 462.372 529.684 469.718 528.752 476.968H529.417C530.323 469.686 530.856 462.34 530.589 454.931C530.27 446.027 527.713 439.476 523.052 435.437C514.13 427.678 499.002 430.54 487.896 434.293C464.991 442.02 443.552 457.125 427.252 476.968H428.237V477Z" fill="#181818"/>
<path d="M300.371 477C313.741 457.952 331.052 444.946 349.35 440.271C359.097 437.791 372.734 436.519 382.242 444.628C391.111 452.164 391.084 465.457 389.513 475.251C389.406 475.823 389.3 476.428 389.193 477H389.885C389.992 476.459 390.072 475.919 390.178 475.378C391.803 465.361 391.803 451.751 382.641 443.96C372.92 435.692 359.097 436.964 349.216 439.476C330.6 444.246 313.048 457.507 299.519 477H300.371Z" fill="#181818"/>
<path d="M312.595 477C323.355 462.785 337.631 453.436 351.134 452.069C359.124 451.274 366.102 454.231 370.763 460.432C374.118 464.884 375.956 470.608 376.169 476.968H376.835C376.622 470.386 374.731 464.503 371.269 459.892C366.475 453.5 359.31 450.415 351.081 451.242C337.231 452.641 322.61 462.308 311.69 476.968H312.595V477Z" fill="#181818"/>
<path d="M630.784 477C638.428 465.393 648.442 456.457 656.938 454.136C670.761 450.352 682.852 463.867 691.801 477H692.68C683.571 463.549 671.16 449.429 656.805 453.373C648.042 455.758 637.735 465.043 629.958 477H630.784Z" fill="#181818"/>
<path d="M445.949 477C454.764 470.608 464.086 466.029 473.381 463.898C490.719 459.955 501.825 464.375 506.353 477H507.072C502.465 463.739 491.092 459.097 473.248 463.103C463.633 465.266 453.832 470.068 444.51 477H445.949Z" fill="#181818"/>
<path d="M329.161 477C329.987 476.332 330.813 475.696 331.665 475.124C336.992 471.467 342.878 469.336 347.778 469.336C351.773 469.336 356.754 470.799 359.657 477H360.429C357.419 470.099 352.066 468.541 347.778 468.541C342.744 468.541 336.752 470.672 331.319 474.424C330.173 475.219 329.055 476.078 327.99 477H329.161Z" fill="#181818"/>
</g>
<defs>
<clipPath id="clip0_10_7">
<rect width="799" height="477" fill="white"/>
</clipPath>
</defs>
</svg>
