<svg width="3000" height="1500" viewBox="0 0 3000 1500" fill="none" xmlns="http://www.w3.org/2000/svg">
<g clip-path="url(#clip0_180_2)">
<path d="M95.3 0C89.4 3.3 83.2 6.2 76.8 8.7C52 18.5 26.1 22.2 0 23.4V26C26.4 24.9 52.5 21 77.7 11.2C85.6 8 93.2 4.2 100.4 0H95.3Z" fill="#393939" fill-opacity="0.5"/>
<path d="M184.2 0C158 29.8 122.9 52.8 82.8 65.4C55.9 73.9 28 78 0 80V82.5C28.3 80.5 56.3 76.3 83.6 67.8C124.9 54.8 161 30.9 187.6 0H184.2Z" fill="#393939" fill-opacity="0.5"/>
<path d="M242.8 0C242.1 1 241.4 2.1 240.6 3.1C200.6 58.7 141.8 97.4 70.4 115C47.1 120.8 23.2 124.8 0 128V130.5C23.4 127.4 47.5 123.3 71 117.5C143 99.7 202.3 60.7 242.6 4.6C243.7 3.1 244.7 1.5 245.8 0H242.8Z" fill="#393939" fill-opacity="0.5"/>
<path d="M328.9 892.7C353 914.4 394.8 910.2 431.7 906.5C504.9 899.2 579.9 886.4 660.9 867.5C684.9 861.9 709.2 855.4 732.7 849.1C783.4 835.6 835.8 821.5 888.3 815.6C966 806.9 1045 812.3 1119.3 818.5C1187.4 824.3 1265.7 827.8 1333.8 797.1C1385.4 773.8 1428 732.6 1457.1 678C1484.6 626.1 1497.2 566.1 1492.3 509.1C1486.2 436.3 1458.6 372.3 1414.7 328.9C1396.8 311.2 1375.7 296.3 1355.2 281.9C1323.5 259.6 1290.7 236.5 1270.4 202.8C1239.4 151.2 1251.4 82.5 1297.7 46.4C1355.8 1.1 1433.8 30.8 1464.7 45.8C1486.1 56.1 1506.7 68.3 1526.6 80.1C1566.2 103.5 1607.1 127.6 1655.1 137.8C1718.7 151.2 1784.1 145.9 1847.3 140.8L1853.5 140.3C1978.8 130.1 2107.7 129.2 2186.5 236.3C2216.8 277.5 2234.7 326.7 2252 374.3C2258.7 392.8 2265.7 411.9 2273.3 430.3C2277.5 440.5 2282 450.9 2286.3 460.9C2308 511.3 2330.4 563.5 2331 619.7C2331.7 691.7 2289.6 749.8 2246.5 803.1L2237.1 814.7C2192.8 869.4 2150.9 921.1 2116.4 982.6C2111.2 991.9 2106.2 1001.3 2100.9 1011.3C2074.8 1060.2 2047.9 1110.8 2002.4 1139.1C1948.6 1172.6 1881.2 1162.4 1821.6 1153.3L1818 1152.8C1743.8 1141.5 1671 1133.3 1596.7 1156C1557.4 1168 1520.3 1186.5 1484.5 1204.4C1455.3 1219 1425.2 1234 1394.1 1245.4C1385.3 1248.6 1376.4 1251.8 1367.6 1255C1306 1277.2 1247.8 1298.2 1191.1 1330.9C1139.4 1360.7 1095.5 1396.4 1049 1434.3C1039.6 1442 1030.2 1449.6 1020.6 1457.3C998.7 1474.9 977.6 1489.1 956.9 1500.2H977.1C993.5 1490.4 1010.1 1478.7 1026.9 1465.2C1036.5 1457.5 1045.9 1449.8 1055.3 1442.2C1101.4 1404.6 1145 1369.2 1196 1339.7C1251.9 1307.5 1309.7 1286.6 1370.9 1264.5C1379.7 1261.3 1388.6 1258.2 1397.4 1254.9C1429 1243.4 1459.4 1228.2 1488.8 1213.5C1524.2 1195.8 1560.9 1177.5 1599.4 1165.7C1671.7 1143.7 1743.3 1151.8 1816.3 1162.8L1819.9 1163.4C1881.1 1172.7 1950.6 1183.2 2007.5 1147.7C2055.2 1117.9 2082.8 1066.2 2109.5 1016.1C2114.8 1006.2 2119.8 996.8 2124.9 987.6C2158.9 926.8 2200.5 875.5 2244.6 821.1L2254 809.5C2296.3 757.2 2341.4 695 2340.7 619.6C2340.2 561.3 2317.3 508.2 2295.2 456.9C2290.9 446.9 2286.5 436.6 2282.3 426.4C2274.8 408.2 2267.9 389.2 2261.2 370.8C2243.7 322.5 2225.5 272.6 2194.3 230.2C2112.4 118.9 1980.5 119.8 1852.5 130.1L1846.3 130.6C1783.8 135.7 1719.2 140.9 1657 127.8C1610.5 118 1572.2 95.3 1531.5 71.3C1511.4 59.4 1490.6 47.1 1468.8 36.6C1436.3 20.9 1353.8 -10.4 1291.3 38.4C1241 77.6 1228 152.1 1261.6 208C1282.9 243.5 1316.6 267.2 1349.2 290.2C1369.3 304.4 1390.1 319 1407.4 336.1C1449.6 377.9 1476.1 439.6 1482 510C1491.9 626.7 1427.7 743.6 1329.4 788C1263.5 817.8 1186.6 814.2 1119.8 808.6C1045 802.3 965.4 796.9 886.8 805.7C833.6 811.7 780.8 825.8 729.7 839.4C706.3 845.7 682 852.1 658.2 857.7C577.5 876.5 503 889.2 430.2 896.5C395.4 900 356 903.9 335.1 885.2C324.4 875.6 319 860.7 318.6 839.6C317.7 786.1 339.2 729.9 382.3 672.8C390.9 661.4 399.7 649.9 408.3 638.9C442.5 594.5 477.8 548.6 505.3 497.7C535.8 441.1 565.5 373.9 596.2 292.1C627.2 209.4 638.7 135.3 631.3 65.5C629.2 42 624.2 20.5 617.3 0H606.7C613.9 20.7 619.1 42.5 621.7 66.4C628.9 134.6 617.6 207.1 587.2 288.3C556.7 369.6 527.2 436.5 496.9 492.6C469.8 542.8 434.7 588.4 400.8 632.4C392.2 643.5 383.4 655 374.8 666.4C330.3 725.4 308.2 783.7 309.1 839.5C309.4 863.7 315.9 881 328.9 892.7Z" fill="#393939" fill-opacity="0.5"/>
<path d="M671.8 1489.6C658.7 1485.2 645.1 1480.6 631.9 1476.4C568.4 1456.2 496.6 1430.2 447.4 1376.9C410.3 1336.7 400.4 1282.8 390.9 1230.7C388.3 1216.4 385.6 1201.7 382.4 1187.5C374.6 1152.7 364.9 1117.9 352.8 1080.9C349.1 1069.5 345.6 1057.6 342.2 1046.1C334.9 1021.3 327.4 995.8 317 972.2C301.3 936.8 270.7 927 245.7 922.3C214.3 916.5 181 909.5 149.7 893.3C100.8 868.1 65.3999 824.5 38.1999 756.1C24.2999 721.1 11.7999 684.9 -0.100098 649.4V680.7C8.9999 707.2 18.4999 733.9 28.8999 759.9C56.6999 829.7 94.6999 876.3 145.2 902.4C177.7 919.2 211.8 926.4 244 932.4C277.9 938.7 297 951.8 307.9 976.4C318.1 999.4 325.5 1024.6 332.7 1049.1C336.1 1060.7 339.6 1072.7 343.4 1084.2C355.3 1120.8 364.9 1155.4 372.7 1189.9C375.9 1203.9 378.5 1218.5 381.1 1232.7C390.9 1286.2 401 1341.6 440.1 1384C491 1439.1 564.2 1465.7 628.9 1486.3C642 1490.5 655.5 1495 668.6 1499.4C669.4 1499.7 670.2 1499.9 671 1500.2H703.1C692.6 1496.6 682.2 1493.1 671.8 1489.6Z" fill="#393939" fill-opacity="0.5"/>
<path d="M1552.9 30.9C1603.9 57.2 1652 82 1708.4 91.8C1767.8 102.1 1827.4 93.2 1885.1 84.5C1900.4 82.2 1916.3 79.8 1931.9 77.8C2009.1 68 2066.7 74.2 2118.5 97.9C2169.3 121.2 2213.9 160.7 2244.1 209.1C2268.5 248.1 2281.3 293.2 2293.7 336.9C2300.1 359.4 2306.7 382.6 2314.8 404.7C2320.6 420.5 2327.3 436.7 2333.8 452.4C2355.5 504.9 2378 559.1 2375 615.7C2370.4 703.2 2316.4 769.1 2264.1 832.9C2233.2 870.6 2201.2 909.7 2179.2 953.1C2138.1 1034.5 2124.9 1106.2 2139.7 1166.1C2143.2 1180.2 2147.4 1193.9 2151.4 1207.2C2167.6 1260.5 2182.8 1310.9 2148.2 1366.1C2134.7 1387.6 2119.5 1407.9 2104.9 1427.5C2087.7 1450.5 2070.2 1474.1 2055.1 1499.9H2058C2072.8 1474.8 2090.1 1451.7 2106.9 1429.1C2121.6 1409.4 2136.7 1389.1 2150.3 1367.5C2185.6 1311.4 2170.2 1260.4 2153.8 1206.5C2149.8 1193.2 2145.6 1179.5 2142.2 1165.5C2127.5 1106.2 2140.7 1035.1 2181.5 954.3C2203.3 911.1 2235.2 872.2 2266.1 834.5C2318.6 770.5 2372.9 704.2 2377.5 615.9C2380.5 558.7 2358 504.2 2336.1 451.5C2329.6 435.8 2322.9 419.6 2317.1 403.9C2309 381.9 2302.4 358.7 2296 336.3C2283.5 292.5 2270.6 247.2 2246.1 207.9C2215.6 159.1 2170.6 119.2 2119.4 95.7C2067.2 71.7 2009.2 65.4 1931.4 75.3C1915.8 77.3 1899.9 79.7 1884.6 82C1827.1 90.6 1767.7 99.6 1708.7 89.3C1652.7 79.5 1604.7 54.8 1553.9 28.6C1546.5 24.8 1539.1 21 1531.7 17.2C1520.1 11.3 1508.3 5.49999 1496.3 -0.100006H1490.3C1504 6.09999 1517.4 12.8 1530.6 19.4C1538.2 23.3 1545.6 27.1 1552.9 30.9Z" fill="#393939" fill-opacity="0.5"/>
<path d="M1316.6 318C1285.6 292.9 1253.6 266.9 1230.3 233.5C1194.4 182 1192.7 110.6 1225.9 51.6C1237.5 30.9 1252.4 13.5 1269.5 0H1265.5C1249.2 13.4 1235 30.4 1223.7 50.4C1190 110.3 1191.8 182.7 1228.2 235C1251.7 268.7 1283.9 294.8 1315 320C1334.2 335.6 1354.1 351.8 1371.7 369.5C1416.8 415.1 1440.5 478.5 1436.6 543.5C1432.6 610.2 1400.5 672.1 1348.4 713.3C1270 775.4 1173.6 770.5 1080.5 765.8C1030.3 763.3 978.5 760.6 929.9 768.5C915.4 770.8 900.7 772.7 886.5 774.5C870.4 776.6 853.7 778.7 837.3 781.5C808.3 786.5 779.1 792.7 750.8 798.8C740.8 800.9 730.9 803.1 720.9 805.1L715.2 806.3C652.1 819.5 580.7 834.4 515.1 828C476.2 824.1 446.2 810.2 430.7 788.9C418.9 772.6 415.4 752.2 420.4 728.4C429.3 686.4 453.9 649.6 477.7 613.9C490.7 594.5 504.1 574.4 514.6 553.9C534.2 515.8 549.4 474.8 564.1 435.2C567.8 425.3 571.4 415.4 575.2 405.6C581.2 389.8 587.6 373.7 593.7 358.2C606.2 326.6 619.1 293.9 629.9 261.1C660.2 168.9 667.2 84.9 651.4 0.1H648.8C664.7 84.6 657.7 168.4 627.5 260.3C616.7 293.1 603.8 325.7 591.3 357.3C585.2 372.8 578.8 388.8 572.8 404.7C569.1 414.5 565.4 424.4 561.7 434.3C547 473.9 531.8 514.8 512.3 552.7C501.8 573.1 488.4 593.1 475.5 612.4C451.6 648.3 426.8 685.3 417.9 727.8C412.7 752.4 416.3 773.4 428.6 790.3C444.6 812.3 475.2 826.5 514.8 830.4C580.7 836.9 652.4 821.9 715.7 808.7L721.4 807.5C731.4 805.4 741.4 803.3 751.3 801.1C779.5 795.1 808.7 788.8 837.6 783.9C854 781.1 870.7 778.9 886.7 776.9C900.9 775.1 915.6 773.2 930.2 770.9C978.5 763.1 1030.2 765.7 1080.2 768.3C1173.8 773 1270.6 777.9 1349.8 715.3C1402.4 673.7 1434.9 611.1 1438.9 543.6C1442.8 477.9 1418.9 413.7 1373.3 367.6C1355.8 349.8 1335.9 333.7 1316.6 318Z" fill="#393939" fill-opacity="0.5"/>
<path d="M1268.3 339.3C1250.5 322.5 1232 305.1 1215.6 286.5C1165.1 229.4 1147.2 165.7 1162.4 97.2C1170.4 61.1 1184.2 27.8 1202.1 0H1199.1C1181.5 27.8 1167.9 60.9 1159.9 96.7C1144.5 166 1162.6 230.4 1213.7 288.2C1230.2 306.9 1248.7 324.3 1266.6 341.1C1295.9 368.7 1326.2 397.3 1348.4 431.9C1384.9 489 1386.8 555.7 1353.4 610.4C1313.2 676.3 1245.4 700 1195.6 708.2C1146.9 716.3 1096.2 718.1 1047.2 719.9C1020.5 720.9 992.9 721.9 966 723.9C915.9 727.6 865.7 735.3 817 742.7C789.3 747 760.6 751.3 732.2 754.9H731.9C683.5 761.1 633.5 767.4 586.6 756.4C563.2 750.9 546.3 741.1 536.3 727.4C517.8 702.1 526.8 668.1 537.7 635.4C548.3 603.5 558.5 570.9 568.3 539.3C581.8 496.2 595.7 451.7 610.7 408.4C618.1 387.1 626.3 365.5 634.2 344.6C653.3 294.1 673.1 241.9 684.2 188.3C696.8 127.9 698.7 64.5 690 0H687.5C696.3 64.4 694.4 127.5 682 187.9C671 241.3 651.2 293.4 632.1 343.8C624.2 364.7 616 386.3 608.6 407.7C593.5 451.1 579.6 495.6 566.1 538.7C556.2 570.2 546.1 602.8 535.5 634.7C527.4 659.3 513.7 700.5 534.5 729C544.9 743.2 562.3 753.3 586.2 758.9C605 763.4 624.4 765 643.8 765C673.2 765 703.1 761.2 732.3 757.5H732.6C761 753.9 789.7 749.5 817.4 745.3C866 737.9 916.2 730.2 966.2 726.5C993.1 724.5 1020.7 723.5 1047.3 722.5C1096.4 720.7 1147.1 718.9 1196 710.8C1246.3 702.5 1314.8 678.5 1355.5 611.8C1389.4 556.2 1387.5 488.5 1350.5 430.6C1328.2 395.7 1297.7 367 1268.3 339.3Z" fill="#393939" fill-opacity="0.5"/>
<path d="M1834.8 0C1786.9 35.8 1717.2 20.1 1668.8 5.1C1663.6 3.5 1658.4 1.8 1653.3 0H1645.4C1652.9 2.6 1660.5 5.1 1668 7.5C1717.3 22.8 1788.4 38.8 1837.2 1.3C1837.8 0.9 1838.3 0.4 1838.9 0H1834.8V0Z" fill="#393939" fill-opacity="0.5"/>
<path d="M1164.9 282C1124.4 229.6 1110.2 166.5 1124 99.5C1129 75.3 1138.5 38.5 1155.4 0H1152.7C1136 38.3 1126.5 74.9 1121.6 98.9C1107.7 166.7 1122 230.5 1162.9 283.5C1177.6 302.5 1195.2 320.9 1213.8 340.5C1270.7 400.3 1329.6 462.2 1313 546.3C1296.4 630.3 1200.7 655.4 1119.2 667.9C1091.2 672.2 1062.6 675.2 1034.9 678.2C1019.4 679.9 1003.4 681.6 987.6 683.5C970.3 685.6 953 687.8 935.7 690C877.4 697.4 817 705.1 757.6 708.2C674.4 712.6 625.5 691.7 612.2 646.3C603.4 616.2 606.9 582.6 611.3 550.8C611.9 546.7 612 540.9 612.1 534.1C612.4 517.9 612.8 495.6 621.1 489L621.4 488.6C625.8 480.3 626.9 470.6 627.9 461.3C628.3 457.7 628.7 454.2 629.3 450.9C631.8 436.3 636.5 421.8 641.1 407.7L642.7 402.9C651.6 375.5 662.2 348.2 672.4 321.8C676.9 310.2 681.5 298.3 685.9 286.5C712.9 214.6 726.9 142 727.7 70.6C728 47.2 726.6 23.4 725.1 0.1H722.6C724.1 23.4 725.5 47.2 725.2 70.6C724.4 141.7 710.4 214 683.6 285.7C679.2 297.5 674.5 309.5 670.1 321C659.9 347.4 649.3 374.8 640.4 402.2L638.8 407C634.2 421.2 629.4 435.8 626.9 450.6C626.3 454 625.9 457.7 625.5 461.2C624.5 470.2 623.4 479.5 619.4 487.4C610.4 494.9 610 516.7 609.7 534.3C609.6 540.9 609.5 546.7 608.9 550.7C604.5 582.8 600.9 616.7 609.9 647.2C622.4 689.9 665 711.4 736.8 711.4C743.5 711.4 750.5 711.2 757.7 710.8C817.3 707.7 877.6 700 936 692.5C953.3 690.3 970.6 688.1 987.8 686C1003.5 684.1 1019.6 682.4 1035.1 680.7C1062.8 677.7 1091.5 674.7 1119.5 670.4C1195.4 658.8 1298.3 633.3 1315.4 546.8C1332.3 461.4 1272.9 399.1 1215.6 338.8C1197.1 319.3 1179.5 300.9 1164.9 282Z" fill="#393939" fill-opacity="0.5"/>
<path d="M2165.5 1459.9C2154.2 1473 2142.8 1486.3 2131.8 1500H2135C2145.5 1486.8 2156.5 1474.1 2167.3 1461.5C2187.9 1437.6 2209.2 1412.8 2226.9 1385.9C2264.9 1328 2268.6 1270.3 2238.7 1198.7C2214.5 1140.6 2189.4 1080.5 2206.5 1011.2C2224.6 937.6 2272.4 879.7 2318.7 823.7C2357 777.3 2396.5 729.4 2419.4 672.6C2445.3 608.5 2442.4 535.1 2410.9 454.4C2408.8 449.1 2406.7 443.9 2404.7 438.6C2394.2 412 2383.3 384.5 2375.8 356.4C2369.5 332.8 2366.5 308.2 2363.6 284.4C2362.6 276.1 2361.5 267.4 2360.4 258.9C2355.4 223 2344.8 190.8 2326.2 154.4C2312.6 128 2292.9 105.5 2273.9 83.7C2265.9 74.6 2257.7 65.2 2250.1 55.7C2237.5 40 2224.7 21.1 2220.1 -0.100006H2217.5C2222.1 21.7 2235.3 41.1 2248.2 57.3C2255.9 66.9 2264.1 76.3 2272.1 85.4C2291.1 107.1 2310.7 129.5 2324.1 155.6C2342.6 191.7 2353.1 223.7 2358 259.3C2359.2 267.8 2360.2 276.4 2361.2 284.7C2364.1 308.6 2367.1 333.3 2373.5 357.1C2381 385.3 2392 412.9 2402.5 439.6C2404.6 444.9 2406.7 450.1 2408.7 455.4C2440 535.5 2442.8 608.2 2417.2 671.7C2394.4 728.1 2355 775.9 2316.9 822.1C2270.5 878.4 2222.5 936.5 2204.2 1010.6C2186.9 1080.7 2212.2 1141.2 2236.6 1199.7C2266.1 1270.4 2262.5 1327.4 2225 1384.5C2207.3 1411.3 2186.1 1436 2165.5 1459.9Z" fill="#393939" fill-opacity="0.5"/>
<path d="M3000 39.1C2958.7 36.5 2920.9 39.2 2883 47C2851.1 53.6 2819.2 62.1 2788.2 70.3C2746.9 81.3 2704.2 92.7 2661.1 99.6C2604.1 108.7 2530.3 114.6 2465.8 79.3C2427.2 58.2 2397.3 30.4 2379.1 0H2376.2C2394.6 31.3 2425.2 59.9 2464.7 81.6C2503 102.6 2544.5 109.2 2583.8 109.2C2611.3 109.2 2637.9 106 2661.5 102.2C2704.7 95.3 2747.5 83.9 2788.9 72.9C2819.8 64.7 2851.7 56.2 2883.5 49.6C2921.2 41.8 2958.8 39.2 3000 41.8V39.1Z" fill="#393939" fill-opacity="0.5"/>
<path d="M2644.1 0C2651.9 0.6 2659.8 1 2667.9 1C2676.1 1 2684.5 0.7 2692.9 0H2644.1Z" fill="#393939" fill-opacity="0.5"/>
<path d="M1167 338.9C1138.8 304.7 1109.5 269.3 1093.7 227.5C1070.4 166.2 1086 98.8 1106.2 35.1C1109.8 23.7 1113.6 12 1117.4 -6.10203e-06H1106.8C1103.3 10.9 1099.9 21.5 1096.6 32C1075.8 97.5 1059.9 166.9 1084.3 231.1C1100.8 274.5 1130.5 310.5 1159.3 345.4C1165.3 352.6 1171.4 360.1 1177.4 367.5C1224 425.7 1244.9 475.1 1239.5 514.2C1236.1 538.8 1222.1 560.1 1197.9 577.3C1136.8 620.8 1053.6 631.7 980.2 641.3L973.8 642.1C962.9 643.5 951.9 645.1 941.1 646.6C901.7 652.2 861 658 821.1 658C803.1 658 786.6 656.9 770.7 654.5C731.4 648.7 703.3 634.9 687.2 613.5C670.8 591.7 666.6 563.1 663.6 533.2C665.9 467.5 678.6 404.9 702.5 341.8C704.9 335.6 707.2 329.4 709.6 323.2C729.9 270.1 750.9 215.1 758.5 156.3C764.1 112.7 764.6 68.3 765.2 25.3C765.3 16.9 765.4 8.49999 765.6 -0.100006H755.5C755.4 8.39999 755.2 16.8 755.1 25.1C754.6 67.8 754.1 111.9 748.5 154.9C741.1 212.5 721.2 264.5 700.2 319.5C697.8 325.7 695.4 331.9 693.1 338.1C668.8 402.4 655.8 466.1 653.6 533.1V533.4V533.7C656.8 565.2 661.2 595.5 679.3 619.4C697 643 727.3 658.1 769.3 664.3C785.7 666.7 802.6 667.9 821.2 667.9C861.8 667.9 902.9 662.1 942.6 656.4C953.3 654.9 964.4 653.3 975.2 651.9L981.5 651.1C1056.1 641.3 1140.6 630.2 1203.7 585.3C1230.3 566.4 1245.7 542.8 1249.5 515.3C1255.4 472.7 1234.4 422.2 1185.3 360.8C1179.2 353.6 1173 346.1 1167 338.9Z" fill="#393939" fill-opacity="0.5"/>
<path d="M1110.5 339.7C1078 298.5 1044.4 255.8 1034.2 203.7C1023.8 151 1040.1 98.7 1055.8 48.1C1060.7 32.3 1065.7 16 1069.8 0H1067.2C1063.1 15.7 1058.2 31.8 1053.4 47.3C1037.6 98.2 1021.3 150.9 1031.8 204.2C1042.2 256.9 1076 299.8 1108.6 341.3C1116.5 351.3 1124.6 361.6 1132.1 371.8C1181 437.6 1189.5 491.1 1157.4 530.7C1125.9 569.6 1069.3 583.4 1028 593.5C981.6 604.9 926.7 616.5 871.9 616.5C851.8 616.5 832.4 614.9 814.4 611.8C748.5 600.3 711.9 556.3 705.5 481C705.4 419.7 729.1 362.3 752.1 306.8C754.6 300.8 757 294.9 759.5 289C786.2 223.6 799.2 163.9 800.1 101.3L800.2 91C800.6 61.8 801.1 30.6 803.9 0.1H801.4C798.6 30.7 798.2 61.8 797.8 91L797.7 101.3C796.8 163.7 783.9 223 757.3 288.1C754.9 294 752.4 300 749.9 305.9C726.8 361.6 703 419.2 703.1 481.2C709.5 557.8 746.9 602.6 814.1 614.4C832.3 617.6 851.8 619.2 872.1 619.2C927.2 619.2 982.2 607.5 1028.8 596.1C1070.5 585.9 1127.6 571.9 1159.6 532.4C1192.5 491.8 1184 437.2 1134.4 370.4C1126.5 360.1 1118.4 349.7 1110.5 339.7Z" fill="#393939" fill-opacity="0.5"/>
<path d="M0 186.1C5.4 184.6 10.8 183.1 16.1 181.6C72.9 165.8 131.5 149.5 182.6 117.9C230.9 88 267.7 47.1 303.1 0H300C265 46.2 228.7 86.4 181.3 115.7C130.5 147.1 72 163.4 15.5 179.2C10.4 180.6 5.2 182.1 0 183.5V186.1Z" fill="#393939" fill-opacity="0.5"/>
<path d="M592 60.6C587.1 39.8 579.2 19.4 569.1 0H566.3C576.6 19.6 584.6 40.2 589.6 61.2C604.6 123.9 597.1 190.8 565.4 278.1C537.3 355.5 505.3 424.2 470.3 482.4C441.5 530.2 406 568.9 368.3 609.9C358.6 620.5 348.5 631.5 338.6 642.5C328.4 654 318.2 665.8 308.3 677.2C294.5 693.2 280.3 709.8 265.7 725.5C262.9 728.5 260 731.7 257.1 735C238.5 755.7 217.4 779.1 192.5 787.9C185.7 790.3 178.7 791.6 171.7 791.6C122 791.6 81.4 729.3 66.3 702.6C38.9 654.4 18.8 601.9 0 550.2V557.6C18.1 607.3 37.8 657.5 64.1 703.9C83.2 737.6 122.6 794.2 171.7 794.2C178.9 794.2 186.2 792.9 193.3 790.4C218.9 781.3 240.2 757.7 259 736.8C261.9 733.5 264.8 730.4 267.6 727.3C282.2 711.5 296.4 694.9 310.3 678.9C320.1 667.5 330.3 655.6 340.5 644.2C350.3 633.2 360.4 622.2 370.1 611.6C407.8 570.5 443.5 531.7 472.3 483.7C507.4 425.4 539.5 356.5 567.7 278.9C599.6 191.2 607.1 123.9 592 60.6Z" fill="#393939" fill-opacity="0.5"/>
<path d="M1023.8 317.4C1010.5 302.8 996.8 287.7 985.1 272.2C962.7 242.5 951.5 216.8 949.7 191.3C947.8 163.3 959 137 970 111.5C972.7 105.3 975.4 98.9 977.9 92.6C986.4 71.2 1000.6 35 1004.8 0H1002.3C998.1 34.6 984 70.5 975.6 91.7C973.1 98 970.4 104.4 967.7 110.6C956.7 136.3 945.2 162.9 947.2 191.6C949 217.6 960.4 243.7 983.1 273.8C994.8 289.4 1008.6 304.5 1022 319.2C1049.3 349.2 1077.6 380.2 1091.4 418.2C1112.1 475 1072.2 515.9 1028 535.4C990.5 551.8 945.9 561.3 905.5 561.3C862.7 561.3 788 549.9 767.3 473.9C762.4 431.3 772.4 385.5 797.1 337.9C804.7 323.2 813.8 308.6 822.5 294.5C838.7 268.5 855.4 241.5 864.4 212.3C875.5 176.3 871 138.1 866.6 101.1C863.3 72.9 859.8 43.7 863.3 15.7C863.9 10.7 864.9 5.5 866.2 0.2H863.6C862.3 5.4 861.4 10.5 860.8 15.4C857.2 43.7 860.7 73 864.1 101.4C868.4 138.1 872.9 176.1 862 211.6C853.1 240.5 836.4 267.3 820.4 293.3C811.6 307.5 802.5 322.2 794.9 336.9C770 385 759.9 431.2 764.9 474.5C786 552.3 862.1 564 905.5 564C946.2 564 991.2 554.5 1029 537.9C1074.3 518 1115.1 476 1093.8 417.6C1079.7 378.8 1051.2 347.6 1023.8 317.4Z" fill="#393939" fill-opacity="0.5"/>
<path d="M-9.76548e-05 268.6C1.6999 266.5 3.4999 264.4 5.4999 262.4C29.3999 238.6 60.4999 224.2 90.5999 210.2C94.7999 208.3 98.8999 206.3 103.1 204.4C155.2 179.9 222.6 144.8 282.9 90.8C293.3 81.5 303.4 71.1 314.2 60.1C336 37.8 358.4 15.1 383.7 -0.100006H378.9C354.7 15.1 333.4 36.9 312.4 58.3C301.7 69.3 291.5 79.6 281.2 88.8C221.2 142.5 153.9 177.5 102 202C97.8999 204 93.6999 205.9 89.4999 207.8C59.1999 221.8 27.8999 236.4 3.6999 260.5C2.3999 261.8 1.0999 263.2 -0.100098 264.6V268.6H-9.76548e-05Z" fill="#393939" fill-opacity="0.5"/>
<path d="M553.3 73.3C544.1 45.7 526.1 18 501.7 0H497.3C522.8 17.6 541.4 45.9 550.9 74.1C567.9 124.5 565.4 183.2 543.4 253.4C522.9 318.8 490.8 388.1 450.4 454C414.8 512 369.7 557.1 313 607C310.5 609.2 307.9 611.5 305.2 613.9C269 646 219.4 689.9 171.1 689.9C163.5 689.9 156 688.8 149 686.5C100.9 671.1 73.2 622.5 50.4 572.3C28.6 524.5 13.4 474 0 423.6V433.3C12.8 480.8 27.6 528.3 48.1 573.4C71.1 624.1 99.2 673.2 148.2 688.9C155.5 691.2 163.2 692.4 171.1 692.4C220.4 692.4 270.3 648.1 306.8 615.7C309.5 613.3 312.1 611 314.6 608.8C371.5 558.8 416.8 513.5 452.5 455.3C493 389.3 525.3 319.7 545.8 254.2C568 183.4 570.5 124.2 553.3 73.3Z" fill="#393939" fill-opacity="0.5"/>
<path d="M184.9 609.2C161.7 609.2 140.9 600.9 123.3 584.5C74.9999 539.5 58.5999 471.5 48.0999 404.8C47.6999 395.7 47.6999 387.9 47.8999 380.7C48.6999 354.6 55.0999 317.3 80.4999 288.6C98.4999 268.2 122.3 253.7 145.4 239.7C148.9 237.5 152.5 235.4 156 233.2C214 197.3 275.7 157.8 333.6 112.3C373 81.3 407.9 65.6 437.4 65.6C460.6 65.6 480.6 75.4 496.7 94.7C532.7 137.8 519.3 204.8 506.2 251.4C468.9 383.2 395.4 493.4 299.3 561.7C270.4 582 227.2 609.2 184.9 609.2ZM437.3 68C408.4 68 373.9 83.5 335 114.1C277 159.7 215.3 199.2 157.2 235.2C153.7 237.4 150.2 239.5 146.6 241.7C123.7 255.6 99.9999 270 82.2999 290.1C57.3999 318.3 51.1999 354.9 50.3999 380.7C50.1999 387.8 50.1999 395.6 50.5999 404.5C60.9999 470.6 77.1999 538.1 125 582.6C142.2 598.6 162.3 606.7 184.9 606.7C226.5 606.7 269.2 579.7 297.7 559.5C393.3 491.6 466.4 381.8 503.6 250.6C516.6 204.6 529.9 138.5 494.6 96.3C479.1 77.5 459.8 68 437.3 68Z" fill="#393939" fill-opacity="0.5"/>
<path d="M852.2 1485.3C847.5 1485.3 842.7 1485.2 838 1484.8C774.1 1480.5 705.1 1458 632.7 1417.9C495.2 1341.8 445.3 1192.3 427.6 1080.4C421.8 1012.7 467.1 976.4 506.1 957.8C552.2 935.8 602.8 921.7 651.8 908C672.1 902.3 693.1 896.5 713.3 890.2C777.1 870.3 853 849.1 932.5 843.3C944.2 842.4 956.4 842 968.8 842C1018.3 842 1066.7 848.7 1113.5 855.2C1151.5 860.5 1198.9 867.1 1245.2 867.1C1323.8 867.1 1382.5 847.3 1424.5 806.7C1469.8 763 1505.5 698.9 1522.7 630.9C1542.7 551.6 1528.1 468.1 1513.1 404.3C1495.6 329.4 1465.8 279.7 1422.1 252.2C1415.9 248.3 1409.1 244.4 1402 240.3C1367.4 220.2 1328.2 197.5 1319.2 158.6C1311.8 126.6 1327.9 98.2 1359.4 87.9C1367 85.4 1375.1 84.2 1383.3 84.2C1402.7 84.2 1423.7 91 1447.7 104.9C1459.9 112 1471.7 120.2 1483.1 128.2C1500.6 140.4 1518.6 153 1538.6 161.7C1565 173.1 1595.5 179.9 1632.1 182.5C1644.6 183.4 1657.4 183.8 1671.2 183.8C1709.8 183.8 1749.8 180.3 1788.4 177C1827.3 173.6 1867.5 170.1 1906.6 170.1C1966.9 170.1 2015.3 178.4 2058.9 196.3C2110.6 217.5 2153.3 258.9 2185.9 319.5C2224.6 391.5 2256 462.3 2279.3 529.9C2305.4 605.4 2300.6 674.1 2265.2 733.8C2238.6 778.7 2203.8 818.5 2170.2 856.9C2158.3 870.5 2145.9 884.6 2134.2 898.7C2122.9 912.2 2111.9 926.6 2101.3 940.4C2073.6 976.5 2045 1013.8 2007.9 1041.4C1951 1083.6 1880.2 1088.5 1831.9 1088.5C1824.7 1088.5 1817.3 1088.4 1809.4 1088.2C1790.8 1087.6 1771.6 1086.3 1753.1 1085C1727.8 1083.3 1701.6 1081.5 1675.9 1081.5C1642.6 1081.5 1615.4 1084.5 1590 1090.8C1540.7 1103.1 1499.1 1132.6 1458.8 1161.1C1443 1172.3 1426.7 1183.9 1410.1 1194.2C1373.2 1217.3 1332.6 1235.9 1293.4 1253.8C1265.9 1266.4 1237.4 1279.4 1210.5 1293.9C1160 1321 1113.5 1355.2 1068.6 1388.3C1055.4 1398 1041.8 1408 1028.3 1417.7C963.8 1463.8 907.9 1485.3 852.2 1485.3ZM968.8 844.5C956.4 844.5 944.3 844.9 932.6 845.8C853.4 851.6 777.6 872.7 713.9 892.6C693.7 898.9 672.7 904.8 652.4 910.5C603.5 924.1 552.9 938.3 507.1 960.1C468.8 978.3 424.4 1014 430.1 1080.1C447.7 1191.4 497.3 1340.1 633.9 1415.7C705.9 1455.6 774.7 1478 838.2 1482.3C842.9 1482.6 847.6 1482.8 852.2 1482.8C907.4 1482.8 962.9 1461.5 1026.8 1415.6C1040.3 1405.9 1053.9 1395.9 1067.1 1386.2C1112.2 1353.1 1158.7 1318.8 1209.3 1291.6C1236.3 1277.1 1264.8 1264 1292.4 1251.4C1331.5 1233.5 1372 1215 1408.8 1191.9C1425.3 1181.6 1441.6 1170 1457.4 1158.9C1497.9 1130.3 1539.7 1100.6 1589.4 1088.2C1614.9 1081.8 1642.4 1078.9 1675.9 1078.9C1701.7 1078.9 1727.9 1080.7 1753.2 1082.4C1771.7 1083.6 1790.8 1085 1809.4 1085.5C1817.3 1085.7 1824.7 1085.9 1831.9 1085.9C1879.9 1085.9 1950.1 1081.1 2006.4 1039.3C2043.3 1012 2071.8 974.8 2099.3 938.8C2109.9 924.9 2121 910.6 2132.3 897C2144.1 882.9 2156.4 868.8 2168.4 855.1C2202 816.7 2236.7 777 2263.2 732.3C2298.2 673.2 2302.8 605.3 2277 530.5C2253.7 463 2222.4 392.4 2183.8 320.5C2151.5 260.4 2109.2 219.4 2058.1 198.4C2014.8 180.7 1966.7 172.4 1906.8 172.4C1867.8 172.4 1827.6 175.9 1788.8 179.2C1750.1 182.5 1710.1 186 1671.4 186C1657.5 186 1644.6 185.6 1632.1 184.7C1595.3 182.1 1564.4 175.2 1537.8 163.7C1517.6 154.9 1499.4 142.2 1481.9 129.9C1470.6 122 1458.8 113.8 1446.7 106.7C1423.1 93 1402.4 86.3 1383.5 86.3C1375.5 86.3 1367.7 87.5 1360.4 89.9C1330.3 99.7 1314.8 126.9 1321.9 157.6C1330.6 195.4 1369.3 217.9 1403.5 237.7C1410.6 241.8 1417.4 245.8 1423.6 249.7C1467.9 277.5 1498 327.8 1515.7 403.3C1530.7 467.4 1545.4 551.3 1525.3 631.1C1508 699.6 1472 764.1 1426.4 808.2C1383.9 849.3 1324.6 869.3 1245.3 869.3C1198.9 869.3 1151.4 862.7 1113.3 857.4C1066.5 851.2 1018.2 844.5 968.8 844.5Z" fill="#393939" fill-opacity="0.5"/>
<path d="M3000 410.4C2991 409 2982.2 407.4 2973.4 405.7C2960.4 403.2 2946.9 400.7 2933.2 399.1C2859.1 390.5 2798.6 394.3 2742.9 411L2734.9 413.4C2686.4 428.1 2631.3 444.8 2591.1 409.4C2557.1 379.5 2552.6 324 2565.8 284.6C2589 215.1 2669.9 187.9 2734.9 166.1C2742.8 163.4 2750.6 160.8 2758 158.2C2770.2 153.9 2782.5 149.4 2794.4 145.1C2836.5 129.6 2880.1 113.7 2925.1 106.4C2949.2 102.5 2974.2 100.9 2999.9 101.5V91.5C2973.7 90.9 2948.1 92.5 2923.5 96.5C2877.5 103.9 2833.5 120.1 2790.9 135.7C2779.1 140 2766.8 144.5 2754.7 148.8C2747.3 151.4 2739.6 154 2731.7 156.6C2664.6 179.1 2581.1 207.2 2556.2 281.5C2542 324.1 2547.1 384.4 2584.4 417.2C2604.2 434.6 2627.2 440.6 2651 440.6C2680.4 440.6 2710.9 431.4 2737.8 423.2L2745.8 420.8C2800.1 404.5 2859.3 400.9 2932.1 409.2C2945.4 410.7 2958.7 413.2 2971.6 415.7C2980.9 417.4 2990.4 419.2 3000 420.7V410.4Z" fill="#393939" fill-opacity="0.5"/>
<path d="M205.8 546.1C192 546.1 178.8 543.4 166.4 538.1C121.7 518.8 106.4 462.6 101.3 430.8L101.2 430.1C101.1 427.9 101.1 425.7 101 423.4C100.2 396.4 99.1999 365.9 114.8 341.2C130.9 315.6 148 296 168.7 279.5C196.7 257.2 227.5 238.3 257.2 219.9C271.7 211 286.7 201.7 301.2 192.2C303.7 190.5 306.4 188.8 309.2 186.9C335.4 169.4 374.9 143 410.1 143C421.3 143 431.5 145.7 440.4 150.9C463.2 164.4 471.3 194.9 464.4 241.6C450.3 336.7 396 435 326.2 492C282.3 528 241.8 546.1 205.8 546.1ZM111.3 429.5C116.1 459.3 130.2 511.5 170.4 528.8C181.5 533.6 193.4 536 205.8 536C239.4 536 277.8 518.6 319.8 484.3C387.8 428.8 440.7 333 454.4 240.3C458.7 211.3 458.9 173.8 435.3 159.8C428 155.5 419.5 153.2 410.1 153.2C378 153.2 340 178.6 314.8 195.4C312 197.3 309.3 199.1 306.7 200.8C292.1 210.4 277.1 219.7 262.5 228.6C233 246.8 202.5 265.6 175 287.5C155.3 303.2 138.9 322 123.4 346.7C109.5 368.8 110.4 396.4 111.2 423.2C111.2 425.3 111.3 427.4 111.3 429.5Z" fill="#393939" fill-opacity="0.5"/>
<path d="M3000 330.7C2979.5 329.3 2957.4 326.3 2932.3 321.6L2930.2 321.2C2897.2 315 2852 306.6 2829.9 279.5C2822.9 270.9 2820.5 261.7 2822.7 252.3C2830.2 220.9 2886.5 193 2910.4 182.5C2936.8 170.9 2970.3 169.8 3000 168.9V166.4C2970 167.2 2936.3 168.3 2909.4 180.2C2885.2 190.9 2828 219.2 2820.2 251.7C2817.7 261.9 2820.3 271.8 2827.9 281.1C2850.6 309 2896.3 317.5 2929.7 323.7L2931.8 324.1C2957.1 328.8 2979.3 331.8 3000 333.2V330.7Z" fill="#393939" fill-opacity="0.5"/>
<path d="M862.4 1438.6C819.7 1438.6 775.5 1427.6 734.5 1406.9C680.3 1379.5 631 1336.9 592.1 1283.7C554.1 1231.7 527.4 1172 515.1 1111L515 1110.6C509.5 1061.8 535.6 1020.8 592.5 988.7C643.8 959.8 703.2 934.1 774.2 910.3C840.1 888.2 901 877.4 960.2 877.4C968.2 877.4 976.4 877.6 984.3 878C1037 880.7 1090.1 889.9 1141.5 898.8C1161.5 902.3 1182.2 905.9 1202.5 909C1214.9 910.9 1227.5 913.1 1239.8 915.2C1281.5 922.3 1324.5 929.6 1366.6 929.6C1375.9 929.6 1384.9 929.2 1393.6 928.5C1419.5 926.4 1448.4 920.9 1467.3 896.2C1481.8 877.2 1491.4 853.8 1500.7 831.1C1502.5 826.8 1504.2 822.6 1506 818.4C1509.9 809.2 1513.9 799.9 1517.9 790.5C1540.7 737.6 1564.2 683 1572.5 626.7C1580.8 570.2 1572.9 510.1 1565.3 451.8C1563.6 438.9 1561.9 425.6 1560.4 412.8C1552.6 346.7 1550.5 273.6 1623.6 244.1C1689.9 217.3 1762.6 214.6 1833 211.9L1840.8 211.6C1855.6 211 1868.6 210.8 1880.5 210.8C1951.7 210.8 2003.4 220.8 2048.2 243.4C2107.6 273.3 2144.5 330.8 2172.7 383.2C2177.9 392.8 2183.4 402.7 2188.6 412.2C2216.9 463.3 2246.3 516.2 2258.2 573.7C2271.1 636 2254.3 700.9 2209.7 761.4C2189.9 788.3 2166.7 813 2144.4 837C2141.4 840.2 2138.5 843.4 2135.5 846.5C2127.7 854.9 2120.1 863.8 2112.7 872.5C2099.1 888.6 2084.9 905.2 2068.7 919.3C2060 926.8 2051.5 935 2043.2 942.8C2026.2 959 2008.6 975.8 1987.9 988.7C1958.9 1006.7 1925.2 1019.4 1887.9 1026.1C1865 1030.3 1841 1032.3 1814.8 1032.3C1761.5 1032.3 1708.1 1023.9 1656.4 1015.7C1647.8 1014.3 1639.2 1012.7 1630 1011C1606 1006.6 1581.3 1001.9 1557.6 1001.9C1523 1001.9 1498.3 1011.8 1479.9 1033.2C1468.5 1046.4 1458.4 1061 1448.6 1075.2C1437.5 1091.2 1426.1 1107.7 1412.7 1122.4C1388.5 1149 1361.3 1171.6 1332 1189.6C1308 1204.3 1283.3 1218.8 1259.5 1232.8C1216.2 1258.2 1171.4 1284.5 1129.1 1313C1115.7 1322 1102.1 1331.7 1088.9 1341.1C1042.4 1374.1 994.3 1408.3 939.8 1426.3C915.1 1434.4 889 1438.6 862.4 1438.6ZM525 1109.2C549.7 1231.3 633.7 1344.6 739 1397.9C778.6 1417.9 821.3 1428.5 862.4 1428.5C887.9 1428.5 913 1424.5 936.9 1416.6C990 1399.1 1037.4 1365.4 1083.3 1332.8C1096.5 1323.4 1110.2 1313.7 1123.7 1304.6C1166.2 1276 1211.1 1249.6 1254.6 1224.1C1278.4 1210.1 1303.1 1195.7 1326.9 1181C1355.4 1163.5 1381.9 1141.5 1405.4 1115.6C1418.4 1101.4 1429.6 1085.1 1440.5 1069.4C1450.5 1055 1460.8 1040.2 1472.5 1026.6C1492.7 1003.2 1520.6 991.8 1557.8 991.8C1582.4 991.8 1607.6 996.5 1632 1001.1C1641.1 1002.8 1649.8 1004.4 1658.2 1005.7C1709.5 1013.8 1762.6 1022.2 1815.1 1022.2C1840.8 1022.2 1864.1 1020.2 1886.4 1016.2C1922.5 1009.6 1955 997.5 1982.9 980.1C2002.7 967.8 2019.9 951.3 2036.5 935.5C2044.8 927.5 2053.4 919.3 2062.3 911.6C2077.9 898.1 2091.8 881.7 2105.2 865.9C2112.6 857.1 2120.3 848.1 2128.3 839.5C2131.3 836.3 2134.3 833.1 2137.2 829.9C2159.4 806.2 2182.3 781.7 2201.8 755.3C2231.7 714.8 2264 650.7 2248.5 575.7C2236.9 519.8 2208 467.6 2180 417.1C2174.7 407.5 2169.2 397.6 2164 388C2136.5 337.1 2100.7 281.1 2043.8 252.5C2000.5 230.7 1950.2 221 1880.7 221C1868.9 221 1856 221.3 1841.3 221.8L1833.5 222.1C1764 224.7 1692.1 227.4 1627.5 253.6C1561 280.5 1562.9 346.4 1570.5 411.7C1572 424.5 1573.7 437.7 1575.4 450.6C1583.1 509.5 1591.1 570.4 1582.6 628.3C1574.1 685.9 1550.3 741.2 1527.3 794.6C1523.3 803.9 1519.3 813.2 1515.4 822.4C1513.7 826.6 1511.9 830.8 1510.2 835C1500.6 858.3 1490.8 882.4 1475.4 902.4C1454.2 930.2 1422.6 936.3 1394.6 938.6C1385.7 939.3 1376.3 939.7 1366.8 939.7C1323.8 939.7 1280.4 932.3 1238.3 925.2C1226.1 923.1 1213.4 921 1201.1 919.1C1180.7 915.9 1160 912.3 1139.9 908.9C1088.8 900 1036 890.9 983.9 888.2C976.1 887.8 968.2 887.6 960.3 887.6C902.1 887.6 842.3 898.2 777.4 919.9C707 943.5 648.2 968.9 597.4 997.5C544.5 1027.3 520.1 1064.9 525 1109.2Z" fill="#393939" fill-opacity="0.5"/>
<path d="M1822.9 957.5C1775 957.5 1729.3 948.4 1694.2 932C1649.4 911 1621.7 879 1611.8 836.9C1606.8 792.7 1615.2 749.1 1623.2 707C1627.6 684.1 1632.1 660.3 1634.5 636.8C1639.2 589.8 1634 545.4 1628.5 498.5C1627.2 487.4 1625.9 475.9 1624.7 464.5C1620.2 420.7 1619.2 365.2 1652 324.2C1678.7 290.8 1722 271.9 1784.5 266.2C1807.5 264.1 1828.3 263.1 1847.9 263.1C1894.7 263.1 1934.2 268.9 1968.8 280.7C2028.9 301.3 2081.2 343.1 2120.2 401.7C2156.4 456.1 2195.1 520.3 2207.1 584.2C2219.2 648.4 2198.7 708.6 2142.4 773.6C2076.4 849.8 1973.1 951.8 1838 957.2C1833 957.4 1828 957.5 1822.9 957.5ZM1847.9 265.6C1828.3 265.6 1807.7 266.6 1784.7 268.7C1723 274.3 1680.2 292.9 1653.9 325.7C1621.7 366 1622.7 420.9 1627.1 464.2C1628.3 475.6 1629.6 487.1 1630.9 498.2C1636.4 545.3 1641.6 589.8 1636.9 637.1C1634.6 660.7 1630 684.5 1625.6 707.5C1617.6 749.5 1609.3 792.9 1614.2 836.5C1640 946.4 1780.4 955 1822.9 955C1827.9 955 1832.9 954.9 1837.8 954.7C1972 949.3 2074.8 847.8 2140.5 771.9C2196.2 707.5 2216.6 648 2204.6 584.7C2192.6 521.2 2154.1 457.3 2118.1 403.1C2079.5 345.1 2027.5 303.6 1968 283.1C1933.7 271.3 1894.4 265.6 1847.9 265.6Z" fill="#393939" fill-opacity="0.5"/>
<path d="M231.7 461.5C212.7 461.5 188 454.1 178.4 419C169 348.9 239.3 304.8 270 289.1C282.8 282.5 316.9 265.1 342.1 265.1C357.3 265.1 367 271.3 371 283.6C382.1 318.1 357.5 365.6 349.7 379.3C334.6 405.9 313.7 427.9 289.5 443C270.5 454.8 249.5 461.5 231.7 461.5ZM342.1 267.6C317.5 267.6 283.8 284.8 271.1 291.3C240.9 306.8 171.7 350.1 180.9 418.4C190.1 451.8 213.6 458.9 231.7 458.9C249 458.9 269.6 452.3 288.1 440.8C312 425.9 332.5 404.2 347.5 378C355.2 364.5 379.4 317.9 368.6 284.3C365 273.3 356.1 267.6 342.1 267.6Z" fill="#393939" fill-opacity="0.5"/>
<path d="M1846.9 887.9C1846.8 887.9 1846.9 887.9 1846.9 887.9C1809.3 887.9 1774.8 876.7 1744.5 854.6C1705.6 826.3 1689.2 776.8 1694.4 703.5C1699.5 631.3 1692.1 562.2 1684.2 489C1683.4 481.7 1682.6 474.3 1681.9 467C1678.5 408.6 1695.3 367 1731.8 343.3C1759.3 325.5 1794.5 316.4 1836.4 316.4C1855.2 316.4 1874.7 318.3 1894.4 321.9C1958 333.8 2016.4 367.3 2063.2 418.9C2114.6 475.5 2148.8 540.2 2157.3 596.3C2165.7 652.7 2143.4 706 2086.8 764.2C2058.5 793.3 1958 887.9 1846.9 887.9ZM1836.3 319C1794.9 319 1760.2 327.9 1733.1 345.5C1697.4 368.6 1681 409.4 1684.3 466.8C1685.1 474.1 1685.9 481.4 1686.7 488.8C1694.2 558.8 1702 631.3 1696.9 703.7C1691.7 776.1 1707.8 824.8 1745.9 852.5C1775.8 874.3 1809.8 885.3 1846.9 885.3C1957.1 885.3 2056.9 791.3 2084.9 762.5C2140.8 704.9 2163 652.3 2154.7 596.8C2146.3 541.1 2112.3 476.9 2061.3 420.7C2014.8 369.5 1957 336.2 1893.9 324.4C1874.3 320.8 1854.9 319 1836.3 319Z" fill="#393939" fill-opacity="0.5"/>
<path d="M926.2 492.9C892.7 492.9 854.5 477.5 844.6 443.1C840.8 420.8 847.8 396.6 863.3 378.2C878 360.7 898.1 350.7 918.6 350.7C926.1 350.7 933.6 352 940.9 354.7C961.5 362.2 988.9 382.8 1000.1 410.2C1006.3 425.3 1006.3 440.4 1000.1 453.7C988.9 477.8 960.5 492.9 926.2 492.9ZM918.6 353.2C898.8 353.2 879.4 362.9 865.2 379.8C850.2 397.6 843.5 421.1 847.1 442.5C856.6 475.5 893.7 490.3 926.2 490.3C959.5 490.3 987 475.8 997.9 452.5C1003.9 439.6 1003.9 425.7 997.8 411C986.8 384.3 960.2 364.3 940 356.9C933.1 354.5 925.8 353.2 918.6 353.2Z" fill="#393939" fill-opacity="0.5"/>
<path d="M1893.2 792.8C1893.1 792.8 1893.1 792.8 1893.2 792.8C1883.2 792.8 1873.5 791.7 1864.3 789.6C1807 776.6 1790 721.4 1785 689.7C1780.3 659.8 1777.5 629.1 1774.8 599.4C1772.4 572.8 1769.9 545.3 1766.1 518.5L1766 518C1764.5 483.6 1762.1 426.1 1809.1 407.1C1823.4 401.3 1838.9 398.4 1855.2 398.4C1897.8 398.4 1937.2 418 1962.7 434.5C2023.5 473.7 2116.5 565.4 2079.8 660.5C2052.2 732.2 1966.7 792.8 1893.2 792.8ZM1776.1 517.4C1780 544.4 1782.5 571.9 1784.9 598.6C1787.5 628.1 1790.3 658.6 1795 688.2C1799.6 717.4 1815.1 768.2 1866.6 779.8C1875.1 781.7 1884.1 782.7 1893.3 782.7C1963.1 782.7 2044.3 725.1 2070.6 656.9C2104.9 567.9 2015.6 480.7 1957.4 443.1C1933 427.4 1895.5 408.6 1855.3 408.6C1840.3 408.6 1826.1 411.3 1813 416.6C1775.7 431.6 1774.3 476.4 1776.1 517.4Z" fill="#393939" fill-opacity="0.5"/>
<path d="M1034.7 1500C1042.5 1492.5 1050.1 1485 1057.7 1477.5C1076.6 1458.8 1096.2 1439.5 1116.9 1422.2C1173.2 1375.3 1234.1 1340.3 1297.8 1318C1334.8 1305.1 1373.6 1296.7 1411.2 1288.6C1445.8 1281.1 1481.5 1273.4 1515.8 1262.2C1522.6 1260 1529.7 1257.5 1537 1255C1594.3 1235.4 1665.5 1211 1719.6 1240.6C1734.1 1248.6 1742.1 1258.6 1743.3 1270.3C1746.5 1302.7 1698.3 1343.4 1669.5 1367.7C1663 1373.2 1657.4 1378 1653.2 1381.8C1614.8 1417.6 1581.9 1457.6 1552.8 1499.9H1555.9C1584.7 1458.2 1617.2 1418.9 1655 1383.7C1659.1 1379.9 1664.7 1375.2 1671.2 1369.7C1702.3 1343.4 1749.2 1303.8 1745.9 1270C1744.6 1257.4 1736.2 1246.7 1720.9 1238.3C1665.9 1208.2 1594 1232.8 1536.3 1252.5C1529 1255 1521.9 1257.4 1515.1 1259.7C1481 1270.9 1445.3 1278.6 1410.8 1286.1C1373.1 1294.2 1334.2 1302.7 1297.1 1315.6C1233.1 1337.9 1172 1373.1 1115.5 1420.2C1094.7 1437.5 1075.1 1456.9 1056.2 1475.6C1048 1483.7 1039.7 1491.9 1031.3 1499.9H1034.7V1500Z" fill="#393939" fill-opacity="0.5"/>
<path d="M335.5 1454.7C303 1439.1 284.8 1421.4 278.4 1398.9C270.7 1372.1 278 1343.8 285.1 1316.4C285.9 1313.4 286.6 1310.4 287.4 1307.4C308.5 1223.3 304 1154.9 273.7 1098.4C244.4 1043.8 194 1009.9 145.2 977.3C95.7 944.1 44.4 909.7 15.6 853.5C9.6 841.9 4.5 829.8 0 817.5V824.6C4 834.8 8.3 844.9 13.3 854.6C42.5 911.5 94 946 143.8 979.4C192.3 1011.9 242.5 1045.5 271.4 1099.6C301.4 1155.6 305.8 1223.3 284.9 1306.8C284.2 1309.8 283.4 1312.7 282.6 1315.7C275.8 1342.1 268.1 1372.1 275.9 1399.5C284.6 1430 313.4 1446.8 334.3 1456.8C373.1 1475.4 414 1488.9 454.8 1499.8H464.7C421 1488.6 377 1474.6 335.5 1454.7Z" fill="#393939" fill-opacity="0.5"/>
<path d="M2807.5 1487.8C2816 1492.3 2824.7 1496.4 2833.4 1500H2840.2C2829.5 1495.8 2818.9 1491 2808.6 1485.5C2700.2 1428.1 2597.8 1299.1 2614.1 1182.8C2623.2 1118.2 2662.8 1055.6 2697.7 1000.5C2702.5 992.9 2707.2 985.4 2711.8 978.1C2716.9 969.9 2722 961.7 2727 953.6C2760.6 899.3 2795.4 843.1 2835.1 791.8C2866.2 751.6 2902.7 715.3 2937.9 680.2C2954.7 663.4 2972.2 646.1 2988.9 628.4C2992.3 624.8 2996.1 620.9 2999.8 616.7V612.9C2995.4 617.9 2990.9 622.6 2986.9 626.9C2970.3 644.4 2952.9 661.7 2936 678.5C2900.7 713.7 2864.1 750 2832.9 790.3C2793.2 841.6 2758.4 897.9 2724.7 952.3C2719.6 960.5 2714.6 968.7 2709.5 976.8C2704.9 984.2 2700.2 991.6 2695.4 999.2C2660.3 1054.6 2620.6 1117.4 2611.4 1182.6C2601.3 1254.2 2634.8 1319.4 2664.7 1361.5C2701.8 1413.2 2753.8 1459.3 2807.5 1487.8Z" fill="#393939" fill-opacity="0.5"/>
<path d="M2196.9 1500C2202.1 1493.3 2207.3 1486.7 2212.4 1480.3C2217.7 1473.8 2223 1467.3 2228.4 1460.8C2259.8 1422.8 2292.4 1383.5 2308.7 1336.1C2331.1 1271.2 2304.9 1216.2 2277.2 1158L2273.3 1149.7C2244.1 1088 2238.3 1032.5 2255.6 980.1C2273.6 925.4 2311.2 878.8 2345 839.4C2353 830.1 2361.3 820.7 2369.3 811.6C2398 779.1 2427.6 745.6 2450.7 707.6C2455 700.5 2459.4 693.1 2463.6 685.9C2489.6 641.7 2516.4 596 2562.9 574.6C2580.7 566.4 2600.1 561.6 2618.8 557C2631.8 553.8 2645.3 550.4 2658.1 546C2680.3 538.3 2702.1 528.5 2723.1 519C2736.6 512.9 2750.6 506.6 2764.5 500.9C2837.1 471.4 2904.5 468.3 2964.9 491.7C2976.3 496.1 2988.9 502 2999.9 509.3V506.3C2990.5 500.2 2979.1 494.5 2965.8 489.3C2904.8 465.6 2836.8 468.8 2763.6 498.5C2749.6 504.2 2735.6 510.5 2722.1 516.6C2701.2 526.1 2679.5 535.9 2657.4 543.5C2644.6 547.9 2631.2 551.2 2618.3 554.5C2599.4 559.2 2579.9 564 2561.9 572.3C2514.7 594.1 2487.6 640.1 2461.5 684.7C2457.3 691.9 2452.9 699.3 2448.6 706.4C2425.6 744.1 2396 777.6 2367.4 810C2359.4 819.1 2351.1 828.5 2343.1 837.8C2309.1 877.3 2271.4 924.2 2253.2 979.3C2235.7 1032.4 2241.6 1088.5 2271.1 1150.7L2275 1159C2302.4 1216.7 2328.4 1271.2 2306.3 1335.1C2290.1 1382 2257.8 1421.1 2226.5 1459C2221.1 1465.5 2215.7 1472 2210.4 1478.6C2204.9 1485.4 2199.2 1492.5 2193.6 1499.8H2196.9V1500Z" fill="#393939" fill-opacity="0.5"/>
<path d="M192.2 1124.2C167.2 1071.3 119.7 1037.5 73.7 1004.8C48.3 986.7 22.3 968.2 0 946.4V949.9C22 971.1 47.4 989.2 72.3 1006.9C118 1039.4 165.3 1073 190 1125.3C241.1 1233.5 130.2 1333.1 56.8 1399L47.9 1407C31.3 1422 14.9 1437.8 0 1455.3V1459.3C15.2 1441 32.3 1424.4 49.5 1408.9L58.4 1400.9C132.4 1334.4 244.1 1234.1 192.2 1124.2Z" fill="#393939" fill-opacity="0.5"/>
<path d="M2273.3 1461.8C2263.3 1474.3 2253.3 1487 2243.6 1500H2256.2C2264.4 1489.2 2272.8 1478.6 2281.1 1468.1C2292.3 1454 2303.9 1439.5 2314.5 1424.8C2352.8 1372.2 2400.5 1306.7 2379.8 1236.2C2371.2 1206.8 2354.7 1180.8 2338.8 1155.6C2317.7 1122.2 2297.8 1090.7 2293.8 1051.4C2282.2 937.4 2378 848.1 2455 776.3L2461.2 770.5C2508.5 726.3 2552.4 688.2 2610.8 668C2636.5 659.1 2664 654.7 2690.5 650.4C2695.8 649.5 2701.2 648.7 2706.5 647.8C2708.4 647.5 2710.6 647.1 2713 646.7C2732.1 643.2 2767.7 636.8 2784 648.2C2788.5 651.4 2791.2 655.8 2792.2 661.6C2795.2 679.2 2787.8 701.3 2781.2 720.7C2779.6 725.3 2778.1 729.7 2776.8 733.9C2768.2 761.7 2757.9 789.7 2745.2 819.5C2724.1 869.2 2697.6 921.1 2661.9 983C2653.3 997.9 2643.4 1013.5 2632.9 1029.9C2583.3 1107.8 2527.1 1196.1 2564.5 1284.8C2586.3 1336.5 2624.9 1385.6 2656.1 1422.6C2680.9 1452 2706.7 1477.8 2733.2 1499.7H2749.3C2719.9 1476.6 2691.2 1448.6 2663.8 1416.1C2633.1 1379.6 2595.1 1331.3 2573.8 1280.9C2538.4 1197.1 2593.1 1111.2 2641.4 1035.4C2651.9 1018.8 2661.9 1003.2 2670.6 988.1C2706.5 925.8 2733.2 873.5 2754.5 823.5C2767.3 793.3 2777.8 765 2786.5 736.9C2787.7 732.8 2789.2 728.5 2790.8 723.9C2797.8 703.3 2805.7 680 2802.2 659.8C2800.7 651.3 2796.6 644.6 2789.8 639.9C2770.1 626 2733.3 632.7 2711.3 636.7C2709 637.1 2706.8 637.5 2704.9 637.8C2699.6 638.7 2694.3 639.6 2689 640.4C2662 644.8 2634.1 649.3 2607.6 658.4C2547.3 679.2 2502.6 718.1 2454.4 763L2448.2 768.8C2369.6 842.1 2271.7 933.4 2283.8 1052.4C2288 1094 2309.5 1128.1 2330.3 1160.9C2345.8 1185.5 2361.9 1210.9 2370.1 1238.9C2389.4 1304.5 2343.4 1367.8 2306.4 1418.6C2295.9 1433.3 2284.4 1447.8 2273.3 1461.8Z" fill="#393939" fill-opacity="0.5"/>
<path d="M3000 1477.3C2985.8 1478.7 2971.2 1479.2 2956.3 1478.9C2896.9 1477.6 2840.2 1459.6 2792.2 1426.9C2747.3 1396.3 2709.5 1354.1 2682.8 1305C2666.7 1275.3 2658.4 1251.4 2655.7 1227.4C2652.6 1199.4 2654.4 1167.1 2660.1 1145.1C2671.2 1103.3 2697.7 1061.8 2721.1 1025.2C2725.3 1018.7 2729.4 1012.2 2733.4 1005.8C2768.4 950 2806.2 898.5 2845.7 852.8C2886.3 806 2929.3 764 2973.5 728C2982.2 720.9 2991 714.2 2999.9 707.7V704.6C2990.5 711.4 2981.1 718.5 2971.9 726C2927.5 762 2884.4 804.1 2843.8 851.1C2804.2 896.9 2766.3 948.5 2731.2 1004.4C2727.2 1010.7 2723.1 1017.2 2718.9 1023.8C2695.4 1060.5 2668.8 1102.2 2657.6 1144.4C2651.7 1166.6 2649.9 1199.3 2653.1 1227.6C2655.8 1252 2664.2 1276.2 2680.5 1306.2C2707.4 1355.7 2745.4 1398.2 2790.7 1429C2839.1 1462 2896.3 1480.1 2956.2 1481.4C2959.1 1481.5 2962 1481.5 2964.8 1481.5C2976.7 1481.5 2988.4 1480.9 2999.9 1479.8V1477.3H3000Z" fill="#393939" fill-opacity="0.5"/>
<path d="M3000 1434.5C2995.8 1434.9 2991.6 1435.3 2987.4 1435.6C2933.6 1438.9 2881.1 1427.3 2835.8 1402.2C2761.4 1360.9 2690 1276.4 2698.3 1180.8C2702.9 1128 2728.1 1081.1 2752.1 1042.3C2782.3 993.4 2817.6 946.9 2856.9 904C2895 862.3 2936.9 823.2 2981.3 787.8C2987 783.3 2993.3 778.3 3000.1 773V769.8C2992.7 775.5 2985.8 781 2979.7 785.8C2935.2 821.3 2893.2 860.4 2855 902.3C2815.6 945.3 2780.3 992 2749.9 1041C2725.7 1080.1 2700.4 1127.2 2695.8 1180.6C2692 1224.2 2704.9 1269.5 2733.1 1311.6C2758.2 1349.1 2794.3 1382.1 2834.6 1404.5C2875.3 1427.1 2921.5 1438.8 2969.4 1438.8C2975.4 1438.8 2981.5 1438.6 2987.6 1438.2C2991.8 1438 2996 1437.6 3000.1 1437.2V1434.5H3000Z" fill="#393939" fill-opacity="0.5"/>
<path d="M3000 1398.3C2999.3 1398.4 2998.7 1398.5 2998 1398.6C2951.1 1404.2 2901.1 1394.3 2857.2 1370.6C2775.9 1326.7 2728.7 1246.9 2737 1167.3C2746.4 1077.4 2812.6 1000.9 2873.9 936.3C2906.5 901.9 2943.8 867.9 2988 832.1C2991.8 829 2995.9 825.8 3000 822.6V819.4C2995.3 823 2990.8 826.7 2986.4 830.2C2942.2 866 2904.8 900.1 2872.1 934.6C2810.5 999.5 2744 1076.4 2734.5 1167.1C2726.1 1247.7 2773.8 1328.4 2856 1372.9C2892.2 1392.5 2932.6 1402.8 2972 1402.8C2980.8 1402.8 2989.6 1402.3 2998.3 1401.2C2998.8 1401.1 2999.4 1401 2999.9 1401V1398.3H3000Z" fill="#393939" fill-opacity="0.5"/>
<path d="M2458.1 1177C2439.8 1177 2423 1167 2409 1157.1C2368 1128.4 2337.7 1078.9 2331.8 1030.9C2327.7 953.9 2379.3 878 2485 805.2C2519.8 781.2 2557.3 759.1 2595.9 759.1C2604.7 759.1 2613.4 760.3 2621.7 762.7C2665.2 775.2 2675.8 819.6 2671.6 853.9C2659 957.6 2590.4 1052.5 2524.9 1131.7C2510.3 1149.3 2494 1169.1 2471 1175.4C2466.7 1176.4 2462.4 1177 2458.1 1177ZM2595.9 761.6C2558 761.6 2520.8 783.5 2486.4 807.3C2381.5 879.6 2330.3 954.7 2334.3 1030.7C2340.1 1077.9 2370 1126.8 2410.4 1155.1C2424.1 1164.7 2440.5 1174.5 2458.1 1174.5C2462.2 1174.5 2466.3 1173.9 2470.2 1172.9C2492.4 1166.8 2508.5 1147.4 2522.7 1130.2C2588.1 1051.1 2656.5 956.6 2669 853.6C2673.1 820.3 2662.9 777.2 2620.9 765.1C2612.9 762.7 2604.5 761.6 2595.9 761.6Z" fill="#393939" fill-opacity="0.5"/>
<path d="M3000 1357C2965.3 1361.7 2929.3 1357 2896.3 1343C2824.1 1312.3 2776.9 1245.1 2778.9 1175.7C2781.2 1095.5 2839.9 1025.4 2897.1 967.4C2926.5 937.5 2960.2 907.4 3000 875.3V862.3C2998.5 863.5 2997 864.7 2995.5 865.9C2954.7 898.8 2920.1 929.6 2890 960.3C2831.5 1019.7 2771.3 1091.7 2768.9 1175.4C2766.8 1249 2816.5 1320.1 2892.4 1352.4C2918.4 1363.4 2946.2 1369 2973.8 1369C2982.6 1369 2991.3 1368.4 3000 1367.3V1357Z" fill="#393939" fill-opacity="0.5"/>
<path d="M3000 1320C2973.3 1324.4 2944.8 1323 2916.2 1311.7C2860.5 1289.6 2808.7 1231.1 2817.3 1161.8C2826.4 1089.1 2877.6 1030.9 2931.6 978.8C2951.5 959.6 2974.4 938.6 3000 918.3V915.1C2973.7 935.8 2950.2 957.3 2929.9 976.9C2875.6 1029.3 2824.1 1087.9 2814.9 1161.4C2806.1 1231.9 2858.7 1291.6 2915.3 1314C2934.5 1321.6 2953.7 1324.8 2972.4 1324.8C2981.8 1324.8 2991 1324 3000.1 1322.5V1320H3000Z" fill="#393939" fill-opacity="0.5"/>
<path d="M2457.1 1066.9C2430.2 1066.9 2410.6 1050.6 2401.8 1021.1C2392.4 966 2431.8 915.7 2475 890.2C2484.6 884.5 2509.7 871.2 2533.3 871.2C2553.5 871.2 2567.3 880.7 2574.2 899.6C2587.3 935 2570.2 980.1 2523.5 1033.5C2505.5 1054.1 2480.1 1066.9 2457.1 1066.9ZM2533.3 873.8C2510.4 873.8 2485.8 886.8 2476.3 892.4C2433.8 917.4 2395.1 966.8 2404.3 1020.5C2412.7 1048.7 2431.4 1064.4 2457.1 1064.4C2479.4 1064.4 2504.1 1051.9 2521.7 1031.9C2567.7 979.2 2584.6 935 2571.9 900.5C2565.3 882.7 2552.3 873.8 2533.3 873.8Z" fill="#393939" fill-opacity="0.5"/>
<path d="M3000 1269.1C2986.2 1271.5 2973.1 1271.4 2960.4 1269C2907.5 1258.9 2869.5 1212.9 2871.8 1161.9C2874.6 1103.1 2918.2 1054.7 2960.6 1015.1C2973 1003.5 2986.2 991.5 2999.9 979.8V976.5C2985.5 988.7 2971.8 1001.2 2958.9 1013.3C2916.2 1053.2 2872.1 1102.1 2869.3 1161.8C2866.8 1214.1 2905.8 1261.2 2959.9 1271.5C2966.5 1272.7 2973.2 1273.4 2980 1273.4C2986.5 1273.4 2993.1 1272.8 2999.9 1271.7V1269.1H3000Z" fill="#393939" fill-opacity="0.5"/>
<path d="M883.3 1377.6C875.1 1377.6 866.8 1377 858.8 1375.9C731.2 1358.2 669.7 1224.1 644.3 1145.8C631.9 1089.2 665.2 1037.2 743.2 991.1C811 951 879.6 930.2 947 929.3C1030.2 928.2 1115.1 950.5 1171.2 967.2C1175.2 968.4 1179.5 969.6 1184.1 971C1237.8 986.4 1318.8 1009.7 1320.2 1072.5C1321.3 1121.4 1271.1 1161.7 1234.5 1191C1231.6 1193.3 1228.8 1195.6 1226.1 1197.8C1186.5 1229.9 1142.3 1257.1 1099.5 1283.5C1082.9 1293.7 1065.7 1304.3 1049.1 1315C998.5 1347.5 943.4 1377.6 883.3 1377.6ZM953.4 931.8C951.3 931.8 949.2 931.8 947 931.8C880 932.7 811.8 953.4 744.4 993.3C667.5 1038.8 634.6 1089.9 646.7 1145.1C671.8 1222.7 732.9 1355.8 859.1 1373.3C867.1 1374.4 875.2 1375 883.3 1375C942.7 1375 997.4 1345.1 1047.7 1312.8C1064.3 1302.1 1081.5 1291.5 1098.2 1281.3C1140.9 1255 1185.1 1227.8 1224.5 1195.8C1227.2 1193.6 1230 1191.4 1232.9 1189C1269.1 1159.9 1318.7 1120.2 1317.6 1072.5C1316.2 1011.6 1236.3 988.6 1183.3 973.4C1178.7 972.1 1174.4 970.9 1170.4 969.7C1116 953.4 1034.2 931.8 953.4 931.8Z" fill="#393939" fill-opacity="0.5"/>
<path d="M120.2 1171.3C117.7 1125.4 88.5 1091.8 63.3 1067.6C44.3 1049.4 23.1 1032.4 0 1016.8V1019.9C22.4 1035.1 43 1051.7 61.6 1069.4C86.5 1093.3 115.3 1126.4 117.8 1171.4C120 1212.3 100.9 1246.9 84.5 1268.8C60.8 1300.4 30 1326 0 1350.5V1353.8C30.6 1328.7 62.2 1302.8 86.4 1270.4C103.1 1248.2 122.5 1213 120.2 1171.3Z" fill="#393939" fill-opacity="0.5"/>
<path d="M3000 1201.1C2986.7 1201.4 2973.9 1197.6 2963.8 1190C2951.7 1181 2944.9 1167.3 2944.6 1151.6C2943.8 1112.3 2974.4 1081 3000 1057.4V1054C2973.7 1078.2 2941.2 1110.4 2942.1 1151.7C2942.4 1168.2 2949.6 1182.6 2962.3 1192.1C2972.5 1199.7 2985.3 1203.7 2998.6 1203.7C2999.1 1203.7 2999.5 1203.7 3000 1203.7V1201.1Z" fill="#393939" fill-opacity="0.5"/>
<path d="M910.5 1314.5C880.1 1314.5 852.5 1305.8 828.2 1288.5C786.1 1258.6 757.1 1208.1 748.5 1149.8C744.9 1121.3 751.1 1092.9 766 1070C807.9 1005.6 896 982.7 964.5 982.7C975.9 982.7 987.1 983.3 997.8 984.5C1037.5 989 1075.8 997.7 1111.5 1010.4C1146.6 1022.8 1184.9 1039.8 1202.9 1071.3C1220.8 1102.8 1205.8 1141.8 1159.5 1184C1109.4 1229.6 1049.2 1270 994.3 1294.7C965.2 1307.9 937 1314.5 910.5 1314.5ZM964.5 985.3C896.7 985.3 809.4 1007.9 768.1 1071.5C753.5 1093.9 747.4 1121.7 751 1149.6C759.5 1207.1 788.1 1257.1 829.6 1286.6C853.4 1303.5 880.6 1312.1 910.4 1312.1C936.6 1312.1 964.5 1305.5 993.2 1292.6C1047.8 1267.9 1107.8 1227.8 1157.7 1182.3C1203.7 1140.4 1218.2 1103.5 1200.6 1072.7C1183.1 1041.9 1145.3 1025.2 1110.6 1013C1075.1 1000.4 1037 991.8 997.5 987.3C986.9 985.9 975.8 985.3 964.5 985.3Z" fill="#393939" fill-opacity="0.5"/>
<path d="M0 1096.7C19.2 1114.8 31.7 1136.2 36 1158.9C43.3 1197.5 22.5 1232.8 0 1258.4V1262.2C23.6 1236 46.1 1199.1 38.5 1158.4C34 1134.4 20.6 1112 0 1093.2V1096.7Z" fill="#393939" fill-opacity="0.5"/>
<path d="M949.6 1222.3C916.9 1222.3 878.6 1206.7 869.1 1162.7V1162.5L869.2 1160.3C870.6 1134 871.9 1109.1 893.9 1089.8C914 1072.1 940.6 1062.7 970.6 1062.7C971.7 1062.7 972.9 1062.7 974 1062.8C996.1 1063.3 1043.6 1071.1 1065.4 1096.7C1074.2 1107 1077.8 1119.1 1076.1 1132.5C1070.7 1175.5 1014.1 1209.4 977.5 1218.8C968.3 1221.1 958.9 1222.3 949.6 1222.3ZM871.5 1162.3C880.8 1204.7 917.9 1219.7 949.5 1219.7C958.6 1219.7 967.8 1218.5 976.8 1216.2C1012.7 1207 1068.3 1173.9 1073.5 1132C1075.1 1119.3 1071.7 1107.9 1063.4 1098.2C1042.1 1073.3 995.5 1065.7 973.8 1065.2C972.7 1065.2 971.6 1065.2 970.5 1065.2C941.1 1065.2 915.1 1074.3 895.5 1091.6C874.3 1110.2 873.1 1133.4 871.6 1160.4L871.5 1162.3Z" fill="#393939" fill-opacity="0.5"/>
<path d="M2306.7 1500C2330 1466.6 2355.8 1435 2381 1404.3L2383.9 1400.8C2386 1398.3 2388 1395.7 2390.2 1393.1C2412.9 1365.1 2441.1 1330.2 2477.9 1328.1C2520.3 1325.7 2557.2 1368 2579.2 1393.2C2590.7 1406.3 2602.1 1419.7 2613.2 1432.7C2632.2 1454.9 2651.8 1477.8 2671.9 1499.9H2675.3C2654.7 1477.2 2634.6 1453.8 2615.1 1431C2604 1418 2592.5 1404.6 2581.1 1391.5C2558.8 1365.9 2521.3 1323 2477.8 1325.5C2439.9 1327.6 2411.3 1363 2388.3 1391.4C2386.2 1394.1 2384.1 1396.6 2382 1399.1L2379.1 1402.6C2353.5 1433.8 2327.3 1465.8 2303.7 1499.9H2306.7V1500Z" fill="#393939" fill-opacity="0.5"/>
<path d="M1085.4 1500C1085.4 1500 1085.4 1499.9 1085.4 1500C1160.4 1415.7 1240.7 1364.3 1324.2 1347.3C1388.2 1334.3 1440.4 1333.4 1483.9 1344.7C1506.3 1350.5 1520.7 1360.7 1526.7 1374.9C1529.3 1381.1 1541.8 1412.5 1529.3 1422.5L1528.9 1422.8L1528.8 1423.2C1523.5 1449.7 1514.1 1475.2 1503.2 1499.9H1506C1516.7 1475.5 1525.8 1450.3 1531.2 1424.1C1544.2 1413 1532.8 1382.9 1529 1373.8C1522.7 1358.9 1507.7 1348.2 1484.5 1342.2C1440.7 1330.8 1388.1 1331.6 1323.7 1344.7C1239.7 1361.8 1158.9 1413.4 1083.6 1498.1C1083.1 1498.7 1082.6 1499.3 1082.1 1499.9H1085.4V1500Z" fill="#393939" fill-opacity="0.5"/>
<path d="M1607.9 1500C1668.6 1438.8 1748 1392.2 1832.7 1368.2C1873.9 1356.6 1929.9 1347.7 1962.5 1371.4C1979.3 1383.7 1988.5 1403.7 1989.7 1430.8C1990.8 1454 1988.8 1477.1 1985.3 1499.9H1987.8C1991.2 1477 1993.2 1453.9 1992.2 1430.6C1991 1402.6 1981.4 1382 1963.9 1369.3C1930.4 1344.9 1873.6 1353.9 1831.9 1365.7C1745.9 1390 1665.4 1437.5 1604.2 1499.9H1607.9V1500Z" fill="#393939" fill-opacity="0.5"/>
<path d="M1127.8 1500C1178 1440.1 1243 1399.2 1311.7 1384.5C1348.3 1376.7 1399.5 1372.7 1435.2 1398.2C1468.5 1421.9 1468.4 1463.7 1462.5 1494.5C1462.1 1496.3 1461.7 1498.2 1461.3 1500H1463.9C1464.3 1498.3 1464.6 1496.6 1465 1494.9C1471.1 1463.4 1471.1 1420.6 1436.7 1396.1C1400.2 1370.1 1348.3 1374.1 1311.2 1382C1241.3 1397 1175.4 1438.7 1124.6 1500H1127.8Z" fill="#393939" fill-opacity="0.5"/>
<path d="M1173.7 1500C1214.1 1455.3 1267.7 1425.9 1318.4 1421.6C1348.4 1419.1 1374.6 1428.4 1392.1 1447.9C1404.7 1461.9 1411.6 1479.9 1412.4 1499.9H1414.9C1414.1 1479.2 1407 1460.7 1394 1446.2C1376 1426.1 1349.1 1416.4 1318.2 1419C1266.2 1423.4 1211.3 1453.8 1170.3 1499.9H1173.7V1500Z" fill="#393939" fill-opacity="0.5"/>
<path d="M2368.4 1500C2397.1 1463.5 2434.7 1435.4 2466.6 1428.1C2518.5 1416.2 2563.9 1458.7 2597.5 1500H2600.8C2566.6 1457.7 2520 1413.3 2466.1 1425.7C2433.2 1433.2 2394.5 1462.4 2365.3 1500H2368.4Z" fill="#393939" fill-opacity="0.5"/>
<path d="M1674.4 1500C1707.5 1479.9 1742.5 1465.5 1777.4 1458.8C1842.5 1446.4 1884.2 1460.3 1901.2 1500H1903.9C1886.6 1458.3 1843.9 1443.7 1776.9 1456.3C1740.8 1463.1 1704 1478.2 1669 1500H1674.4Z" fill="#393939" fill-opacity="0.5"/>
<path d="M1235.9 1500C1239 1497.9 1242.1 1495.9 1245.3 1494.1C1265.3 1482.6 1287.4 1475.9 1305.8 1475.9C1320.8 1475.9 1339.5 1480.5 1350.4 1500H1353.3C1342 1478.3 1321.9 1473.4 1305.8 1473.4C1286.9 1473.4 1264.4 1480.1 1244 1491.9C1239.7 1494.4 1235.5 1497.1 1231.5 1500H1235.9Z" fill="#393939" fill-opacity="0.5"/>
</g>
<defs>
<clipPath id="clip0_180_2">
<rect width="3000" height="1500" fill="white"/>
</clipPath>
</defs>
</svg>
